<svg width="27" height="26" viewBox="0 0 27 26" fill="none" xmlns="http://www.w3.org/2000/svg">
<circle cx="13.6612" cy="13.0655" r="12.8409" fill="#419EDA"/>
<path fill-rule="evenodd" clip-rule="evenodd" d="M6.86328 13.0655C6.86328 9.31099 9.90698 6.26733 13.6616 6.26733C17.4162 6.26733 20.4595 9.31099 20.4595 13.0655C20.4595 16.8202 17.4162 19.8636 13.6616 19.8636C9.90698 19.8636 6.86328 16.8202 6.86328 13.0655ZM13.6616 7.71823C13.3389 7.71823 13.0778 7.97932 13.0778 8.30198V13.0655C13.0778 13.2402 13.1559 13.3975 13.2788 13.5049L16.0904 16.35C16.315 16.5791 16.6835 16.5827 16.9129 16.3569C17.1421 16.1327 17.1457 15.7638 16.9199 15.5347L14.2451 12.8279V8.30198C14.2451 7.97932 13.984 7.71823 13.6616 7.71823Z" fill="white"/>
</svg>
