<svg width="350" height="1117" viewBox="0 0 350 1117" fill="none" xmlns="http://www.w3.org/2000/svg">
<mask id="mask0_156_2" style="mask-type:luminance" maskUnits="userSpaceOnUse" x="298" y="143" width="25" height="24">
<path d="M298.854 143.258H322.318V166.679H298.854V143.258Z" fill="white"/>
</mask>
<g mask="url(#mask0_156_2)">
<path d="M316.406 154.82C316.406 157.919 313.896 160.429 310.799 160.429C307.703 160.429 305.193 157.919 305.193 154.82C305.193 151.723 307.703 149.213 310.799 149.213C313.896 149.213 316.406 151.723 316.406 154.82ZM299.286 154.82C299.286 161.181 304.441 166.339 310.799 166.339C317.164 166.339 322.318 161.181 322.318 154.82C322.318 148.458 317.164 143.304 310.799 143.304C304.441 143.304 299.286 148.458 299.286 154.82Z" fill="black"/>
</g>
<mask id="mask1_156_2" style="mask-type:luminance" maskUnits="userSpaceOnUse" x="143" y="0" width="38" height="23">
<path d="M143.652 0.112152H180.244V22.6441H143.652V0.112152Z" fill="white"/>
</mask>
<g mask="url(#mask1_156_2)">
<path d="M158.965 1.29872L144.91 15.0134C143.26 16.6231 143.232 19.2648 144.839 20.9116C146.448 22.5613 149.09 22.5956 150.74 20.9859L161.807 10.1874L172.605 21.2518C174.215 22.9015 176.857 22.9329 178.506 21.3233C179.344 20.5056 179.764 19.4221 179.764 18.3385C179.764 17.2864 179.37 16.2342 178.578 15.4251L164.866 1.37019C163.253 -0.279463 160.612 -0.308054 158.965 1.29872Z" fill="black"/>
</g>
<path d="M241.139 242.793L252.793 243.637C254.171 243.734 255.372 242.699 255.469 241.318C255.475 241.258 255.475 241.195 255.475 241.135C255.475 239.837 254.471 238.736 253.15 238.642L241.503 237.799C240.122 237.701 238.924 238.736 238.827 240.117C238.726 241.507 239.761 242.69 241.139 242.793Z" fill="black"/>
<path d="M314.781 207.086L315.044 195.405C315.072 194.024 313.979 192.876 312.595 192.847C312.535 192.845 312.472 192.848 312.412 192.851C311.116 192.915 310.066 193.972 310.038 195.296L309.774 206.971C309.746 208.355 310.839 209.5 312.223 209.529C313.616 209.56 314.747 208.467 314.781 207.086Z" fill="black"/>
<path d="M315.537 185.181L315.8 173.5C315.828 172.118 314.735 170.971 313.351 170.942C313.291 170.939 313.228 170.943 313.168 170.946C311.871 171.01 310.822 172.067 310.793 173.391L310.53 185.066C310.502 186.45 311.595 187.595 312.979 187.624C314.372 187.654 315.502 186.562 315.537 185.181Z" fill="black"/>
<path d="M314.138 137.547L314.179 125.864C314.181 124.482 313.066 123.355 311.682 123.353C311.622 123.351 311.559 123.356 311.499 123.36C310.204 123.449 309.175 124.526 309.171 125.85L309.13 137.528C309.128 138.912 310.242 140.036 311.627 140.039C313.02 140.043 314.13 138.929 314.138 137.547Z" fill="black"/>
<path d="M315.279 114.115L315.595 102.435C315.63 101.054 314.542 99.9012 313.158 99.8665C313.097 99.8635 313.035 99.8663 312.975 99.8691C311.678 99.9277 310.624 100.98 310.589 102.304L310.273 113.978C310.238 115.361 311.326 116.511 312.71 116.546C314.103 116.583 315.238 115.496 315.279 114.115Z" fill="black"/>
<path d="M194.872 240.186C196.393 240.077 197.962 240.026 199.669 240.026C201.622 240.026 203.763 240.097 206.219 240.243C207.6 240.326 208.784 239.271 208.864 237.893C208.867 237.844 208.872 237.793 208.872 237.738C208.872 236.426 207.843 235.325 206.517 235.243C203.963 235.094 201.722 235.02 199.669 235.02C197.842 235.02 196.155 235.074 194.514 235.194C193.139 235.291 192.087 236.478 192.196 237.87C192.296 239.245 193.494 240.286 194.872 240.186Z" fill="black"/>
<path d="M308.907 217.745C308.443 221.088 307.12 224.321 304.973 227.352C304.175 228.484 304.441 230.045 305.57 230.843C306.697 231.64 308.258 231.374 309.055 230.245C311.674 226.551 313.292 222.577 313.867 218.434C313.884 218.317 313.89 218.203 313.89 218.089C313.89 216.856 312.984 215.784 311.728 215.613C310.359 215.418 309.095 216.379 308.907 217.745Z" fill="black"/>
<path d="M229.849 236.958L218.198 236.115C216.817 236.015 215.622 237.052 215.519 238.43C215.419 239.82 216.46 241.009 217.838 241.106L229.486 241.95C230.867 242.05 232.065 241.012 232.167 239.634C232.17 239.571 232.173 239.514 232.173 239.451C232.173 238.15 231.167 237.052 229.849 236.958Z" fill="black"/>
<path d="M278.792 242.493C278.784 241.109 277.651 240 276.271 240.009L275.682 240.011C271.936 240.011 268.105 239.748 264.809 239.5C263.431 239.397 262.227 240.429 262.124 241.807C262.018 243.182 263.056 244.389 264.434 244.494C267.822 244.749 271.765 245.018 275.682 245.018L276.308 245.015C277.683 245.006 278.792 243.888 278.792 242.513C278.792 242.505 278.792 242.499 278.792 242.493Z" fill="black"/>
<path d="M164.119 254.035C162.315 257.634 161.026 261.591 160.288 265.794C160.048 267.144 160.96 268.453 162.318 268.69C163.682 268.93 164.98 268.021 165.22 266.66C165.872 262.938 167.01 259.444 168.597 256.276C168.777 255.919 168.86 255.536 168.86 255.159C168.86 254.238 168.357 253.354 167.479 252.92C166.244 252.3 164.74 252.8 164.119 254.035Z" fill="black"/>
<path d="M184.093 242.287C185.122 241.924 185.769 240.958 185.769 239.923C185.769 239.651 185.723 239.371 185.626 239.097C185.168 237.793 183.742 237.104 182.438 237.561C181.646 237.839 180.86 238.144 180.096 238.473C176.98 239.814 174.121 241.67 171.594 243.988C170.576 244.923 170.507 246.507 171.442 247.525C172.377 248.546 173.958 248.614 174.979 247.679C177.091 245.738 179.479 244.191 182.075 243.073C182.732 242.788 183.413 242.524 184.093 242.287Z" fill="black"/>
<path d="M295.169 235.94C292.782 237.235 290.217 238.187 287.324 238.853C285.975 239.168 285.131 240.506 285.446 241.855C285.757 243.205 287.101 244.043 288.448 243.734C291.741 242.97 294.803 241.833 297.551 240.349C298.371 239.9 299.183 239.42 299.97 238.908C300.707 238.427 301.107 237.627 301.107 236.806C301.107 236.338 300.976 235.866 300.701 235.446C299.947 234.285 298.394 233.956 297.239 234.711C296.567 235.148 295.873 235.563 295.169 235.94Z" fill="black"/>
<path d="M246.468 61.6783C246.588 63.0563 247.8 64.077 249.181 63.9598C253.464 63.5881 257.249 63.3022 260.763 63.0821C262.093 63.002 263.113 61.9013 263.113 60.589C263.113 60.5347 263.113 60.4861 263.11 60.4289C263.027 59.0509 261.835 58.0016 260.457 58.0874C256.901 58.3046 253.072 58.5963 248.747 58.9708C247.371 59.0909 246.345 60.2831 246.468 61.6783Z" fill="black"/>
<path d="M214.276 67.139C215.579 67.0275 216.566 65.9325 216.566 64.6459C216.566 64.5773 216.563 64.5058 216.557 64.4286C216.44 63.0535 215.228 62.0299 213.853 62.1471L212.503 62.2644C209.141 62.5531 205.67 62.8476 202.314 62.982C200.93 63.0334 199.852 64.2228 199.912 65.5808C199.966 66.9617 201.13 68.0367 202.508 67.9824C205.982 67.8452 209.513 67.545 212.929 67.2534L214.276 67.139Z" fill="black"/>
<path d="M193.236 65.4008C193.248 65.2893 193.256 65.1835 193.256 65.072C193.256 63.834 192.338 62.7562 191.081 62.5903C187.675 62.1415 184.611 61.3581 181.754 60.2145C181.366 60.0515 180.982 59.8829 180.608 59.7027C179.359 59.1138 177.866 59.6484 177.277 60.8949C176.688 62.1415 177.217 63.6367 178.467 64.2314C178.904 64.4373 179.35 64.6345 179.853 64.8461C183.141 66.1641 186.6 67.0504 190.423 67.5565C191.795 67.7366 193.053 66.7731 193.236 65.4008Z" fill="black"/>
<path d="M239.821 62.3043C239.69 60.932 238.466 59.9256 237.088 60.0543L234.1 60.3488C231.221 60.6318 228.345 60.912 225.472 61.1836C224.094 61.3094 223.079 62.5245 223.213 63.9083C223.339 65.2834 224.563 66.2984 225.938 66.1669C228.82 65.8953 231.704 65.6122 234.583 65.332L237.574 65.0433C238.866 64.9146 239.835 63.8253 239.835 62.5531C239.835 62.4702 239.833 62.3901 239.821 62.3043Z" fill="black"/>
<path d="M309.329 80.9623C310.621 84.0501 311.348 87.5838 311.488 91.4664C311.536 92.8444 312.697 93.928 314.078 93.8765C315.427 93.8251 316.491 92.7186 316.491 91.3749C316.491 91.3463 316.491 91.3177 316.491 91.2834C316.328 86.8033 315.473 82.6778 313.952 79.0325C313.418 77.7574 311.951 77.1541 310.676 77.6859C309.398 78.2205 308.8 79.6872 309.329 80.9623Z" fill="black"/>
<path d="M292.739 63.3536C292.167 64.6145 292.727 66.0983 293.988 66.6701C297.439 68.234 300.538 70.201 303.2 72.5197C304.238 73.4288 305.822 73.3202 306.728 72.2795C307.142 71.8021 307.345 71.216 307.345 70.6356C307.345 69.9351 307.054 69.2404 306.488 68.7458C303.463 66.1069 299.952 63.874 296.052 62.11C294.794 61.5382 293.311 62.0957 292.739 63.3536Z" fill="black"/>
<path d="M161.939 45.9708C163.537 50.0563 165.704 53.653 168.386 56.6778C169.301 57.7128 170.885 57.8072 171.92 56.8866C172.477 56.3948 172.76 55.7086 172.76 55.0168C172.76 54.4221 172.554 53.8303 172.131 53.3528C169.844 50.7768 167.983 47.6805 166.602 44.1496C166.099 42.8631 164.646 42.2255 163.36 42.7287C162.073 43.2347 161.436 44.6842 161.939 45.9708Z" fill="black"/>
<path d="M269.781 60.0772C269.781 60.0972 269.781 60.1172 269.781 60.1372C269.81 61.5181 270.956 62.6131 272.34 62.5817C274.075 62.5445 275.799 62.5216 277.466 62.5216C279.488 62.696 281.492 62.9734 283.422 63.3508C284.78 63.6138 286.095 62.7275 286.358 61.3723C286.389 61.2094 286.404 61.0493 286.404 60.8891C286.404 59.7169 285.574 58.6705 284.379 58.4361C282.238 58.0187 280.019 57.7128 277.784 57.5269C277.715 57.5184 277.644 57.5155 277.575 57.5155C275.837 57.5155 274.038 57.5355 272.226 57.5784C270.862 57.607 269.781 58.722 269.781 60.0772Z" fill="black"/>
<path d="M161.776 19.5735C160.398 19.4391 159.174 20.4426 159.037 21.8178C158.631 25.9434 158.642 30.0861 159.074 34.0029C159.223 35.3781 160.461 36.3702 161.833 36.2187C163.114 36.0757 164.063 34.9922 164.063 33.7313C164.063 33.6398 164.06 33.5484 164.049 33.454C163.657 29.8831 163.646 26.0892 164.017 22.3124C164.158 20.9401 163.151 19.7107 161.776 19.5735Z" fill="black"/>
<mask id="mask2_156_2" style="mask-type:luminance" maskUnits="userSpaceOnUse" x="298" y="658" width="24" height="24">
<path d="M298.099 658.405H321.563V681.826H298.099V658.405Z" fill="white"/>
</mask>
<g mask="url(#mask2_156_2)">
<path d="M315.651 669.967C315.651 673.066 313.14 675.577 310.044 675.577C306.948 675.577 304.437 673.066 304.437 669.967C304.437 666.871 306.948 664.361 310.044 664.361C313.14 664.361 315.651 666.871 315.651 669.967ZM298.531 669.967C298.531 676.329 303.686 681.486 310.044 681.486C316.408 681.486 321.563 676.329 321.563 669.967C321.563 663.606 316.408 658.451 310.044 658.451C303.686 658.451 298.531 663.606 298.531 669.967Z" fill="black"/>
</g>
<path d="M240.384 757.941L252.037 758.784C253.415 758.881 254.616 757.847 254.713 756.466C254.719 756.406 254.719 756.343 254.719 756.283C254.719 754.985 253.715 753.884 252.394 753.79L240.747 752.946C239.366 752.849 238.168 753.884 238.071 755.265C237.971 756.654 239.006 757.838 240.384 757.941Z" fill="black"/>
<path d="M314.026 722.233L314.289 710.552C314.317 709.171 313.224 708.023 311.84 707.995C311.779 707.992 311.717 707.995 311.657 707.998C310.36 708.063 309.311 709.12 309.282 710.444L309.019 722.119C308.991 723.503 310.084 724.648 311.468 724.676C312.861 724.707 313.991 723.615 314.026 722.233Z" fill="black"/>
<path d="M314.781 700.328L315.044 688.647C315.072 687.266 313.979 686.118 312.595 686.09C312.535 686.087 312.472 686.09 312.412 686.093C311.116 686.158 310.066 687.215 310.038 688.539L309.774 700.214C309.746 701.598 310.839 702.743 312.223 702.771C313.616 702.802 314.747 701.709 314.781 700.328Z" fill="black"/>
<path d="M313.382 652.695L313.423 641.011C313.425 639.63 312.31 638.503 310.926 638.501C310.866 638.499 310.803 638.503 310.743 638.507C309.448 638.597 308.419 639.673 308.416 640.998L308.374 652.676C308.372 654.06 309.486 655.184 310.871 655.186C312.264 655.191 313.374 654.077 313.382 652.695Z" fill="black"/>
<path d="M314.523 629.262L314.84 617.583C314.874 616.202 313.786 615.049 312.402 615.014C312.342 615.011 312.279 615.014 312.219 615.017C310.923 615.075 309.868 616.127 309.834 617.451L309.517 629.125C309.483 630.509 310.571 631.659 311.955 631.694C313.347 631.731 314.483 630.644 314.523 629.262Z" fill="black"/>
<path d="M194.116 755.333C195.637 755.225 197.207 755.173 198.914 755.173C200.867 755.173 203.008 755.245 205.464 755.391C206.845 755.473 208.028 754.418 208.108 753.04C208.111 752.992 208.117 752.94 208.117 752.886C208.117 751.574 207.088 750.473 205.761 750.39C203.208 750.241 200.967 750.167 198.914 750.167C197.087 750.167 195.4 750.221 193.759 750.342C192.384 750.439 191.332 751.625 191.44 753.018C191.54 754.393 192.738 755.433 194.116 755.333Z" fill="black"/>
<path d="M308.151 732.893C307.688 736.235 306.364 739.469 304.217 742.499C303.42 743.631 303.685 745.192 304.815 745.99C305.941 746.788 307.502 746.522 308.3 745.393C310.919 741.699 312.537 737.725 313.112 733.582C313.129 733.465 313.134 733.35 313.134 733.236C313.134 732.004 312.228 730.932 310.973 730.76C309.604 730.566 308.34 731.526 308.151 732.893Z" fill="black"/>
<path d="M229.094 752.106L217.443 751.262C216.062 751.162 214.867 752.2 214.764 753.578C214.664 754.967 215.705 756.157 217.083 756.254L228.731 757.097C230.112 757.197 231.31 756.16 231.413 754.782C231.415 754.719 231.418 754.662 231.418 754.599C231.418 753.298 230.412 752.2 229.094 752.106Z" fill="black"/>
<path d="M278.037 757.641C278.028 756.257 276.896 755.148 275.515 755.156L274.926 755.159C271.181 755.159 267.35 754.896 264.053 754.647C262.675 754.544 261.472 755.576 261.369 756.954C261.263 758.33 262.301 759.536 263.679 759.642C267.067 759.896 271.009 760.165 274.926 760.165L275.552 760.162C276.928 760.154 278.037 759.036 278.037 757.661C278.037 757.652 278.037 757.646 278.037 757.641Z" fill="black"/>
<path d="M163.365 769.182C161.561 772.782 160.271 776.739 159.534 780.942C159.293 782.291 160.205 783.601 161.563 783.838C162.927 784.078 164.225 783.169 164.465 781.808C165.117 778.085 166.255 774.592 167.842 771.424C168.022 771.067 168.105 770.683 168.105 770.306C168.105 769.385 167.602 768.502 166.724 768.067C165.489 767.447 163.985 767.947 163.365 769.182Z" fill="black"/>
<path d="M183.338 757.435C184.367 757.072 185.013 756.105 185.013 755.07C185.013 754.799 184.967 754.519 184.87 754.244C184.413 752.94 182.986 752.251 181.682 752.709C180.891 752.986 180.104 753.292 179.341 753.621C176.225 754.962 173.366 756.817 170.838 759.136C169.82 760.071 169.752 761.655 170.687 762.673C171.622 763.693 173.203 763.762 174.223 762.827C176.336 760.886 178.723 759.339 181.319 758.221C181.977 757.935 182.657 757.672 183.338 757.435Z" fill="black"/>
<path d="M294.413 751.088C292.026 752.383 289.462 753.335 286.568 754.001C285.219 754.316 284.375 755.654 284.69 757.003C285.001 758.352 286.345 759.19 287.692 758.881C290.985 758.118 294.047 756.98 296.795 755.496C297.615 755.047 298.427 754.567 299.214 754.055C299.951 753.575 300.352 752.774 300.352 751.954C300.352 751.485 300.22 751.013 299.946 750.593C299.191 749.432 297.638 749.104 296.483 749.858C295.811 750.296 295.117 750.71 294.413 751.088Z" fill="black"/>
<path d="M245.713 576.826C245.833 578.204 247.045 579.225 248.426 579.107C252.709 578.736 256.494 578.45 260.008 578.23C261.338 578.15 262.358 577.049 262.358 575.737C262.358 575.682 262.358 575.634 262.355 575.576C262.273 574.198 261.08 573.149 259.702 573.235C256.146 573.452 252.317 573.744 247.992 574.118C246.617 574.238 245.59 575.431 245.713 576.826Z" fill="black"/>
<path d="M213.52 582.287C214.824 582.175 215.81 581.08 215.81 579.793C215.81 579.725 215.808 579.653 215.802 579.576C215.685 578.201 214.472 577.177 213.097 577.295L211.748 577.412C208.386 577.701 204.915 577.995 201.558 578.13C200.174 578.181 199.097 579.37 199.157 580.728C199.211 582.109 200.375 583.184 201.753 583.13C205.226 582.993 208.757 582.692 212.174 582.401L213.52 582.287Z" fill="black"/>
<path d="M192.481 580.548C192.492 580.437 192.501 580.331 192.501 580.22C192.501 578.982 191.583 577.904 190.325 577.738C186.92 577.289 183.855 576.506 180.999 575.362C180.61 575.199 180.227 575.03 179.853 574.85C178.603 574.261 177.111 574.796 176.522 576.042C175.933 577.289 176.462 578.784 177.711 579.379C178.149 579.585 178.595 579.782 179.098 579.994C182.386 581.312 185.845 582.198 189.668 582.704C191.04 582.884 192.298 581.921 192.481 580.548Z" fill="black"/>
<path d="M239.065 577.452C238.934 576.08 237.71 575.073 236.332 575.202L233.344 575.496C230.465 575.779 227.589 576.06 224.716 576.331C223.338 576.457 222.323 577.672 222.457 579.056C222.583 580.431 223.807 581.446 225.182 581.314C228.064 581.043 230.949 580.76 233.828 580.48L236.818 580.191C238.11 580.062 239.08 578.973 239.08 577.701C239.08 577.618 239.077 577.538 239.065 577.452Z" fill="black"/>
<path d="M308.574 596.11C309.866 599.198 310.592 602.731 310.732 606.614C310.781 607.992 311.942 609.076 313.323 609.024C314.672 608.973 315.736 607.866 315.736 606.522C315.736 606.494 315.736 606.465 315.736 606.431C315.573 601.951 314.718 597.825 313.197 594.18C312.662 592.905 311.196 592.302 309.92 592.833C308.642 593.368 308.045 594.835 308.574 596.11Z" fill="black"/>
<path d="M291.983 578.501C291.412 579.762 291.972 581.246 293.233 581.818C296.684 583.382 299.783 585.349 302.445 587.667C303.482 588.576 305.066 588.468 305.973 587.427C306.387 586.95 306.59 586.363 306.59 585.783C306.59 585.083 306.298 584.388 305.732 583.893C302.708 581.254 299.197 579.022 295.297 577.257C294.039 576.686 292.555 577.243 291.983 578.501Z" fill="black"/>
<path d="M161.183 561.118C162.782 565.204 164.949 568.801 167.63 571.825C168.545 572.86 170.129 572.955 171.164 572.034C171.722 571.542 172.005 570.856 172.005 570.164C172.005 569.57 171.799 568.978 171.376 568.5C169.089 565.924 167.227 562.828 165.846 559.297C165.343 558.011 163.891 557.373 162.604 557.876C161.318 558.382 160.68 559.832 161.183 561.118Z" fill="black"/>
<path d="M269.025 575.225C269.025 575.245 269.025 575.265 269.025 575.285C269.054 576.666 270.2 577.761 271.584 577.729C273.32 577.692 275.044 577.669 276.71 577.669C278.732 577.844 280.736 578.121 282.666 578.498C284.024 578.761 285.339 577.875 285.602 576.52C285.633 576.357 285.648 576.197 285.648 576.037C285.648 574.865 284.819 573.818 283.624 573.584C281.482 573.166 279.264 572.86 277.028 572.675C276.959 572.666 276.888 572.663 276.819 572.663C275.081 572.663 273.282 572.683 271.47 572.726C270.106 572.755 269.025 573.87 269.025 575.225Z" fill="black"/>
<path d="M161.02 534.721C159.642 534.587 158.418 535.59 158.281 536.965C157.875 541.091 157.887 545.234 158.318 549.151C158.467 550.526 159.705 551.518 161.077 551.366C162.358 551.223 163.307 550.14 163.307 548.879C163.307 548.787 163.304 548.696 163.293 548.602C162.901 545.031 162.89 541.237 163.262 537.46C163.402 536.088 162.395 534.858 161.02 534.721Z" fill="black"/>
<path d="M279.699 1107.09L291.383 1107.03C292.765 1107.02 293.882 1105.9 293.872 1104.52C293.873 1104.46 293.868 1104.39 293.863 1104.33C293.763 1103.04 292.677 1102.02 291.353 1102.03L279.675 1102.09C278.291 1102.1 277.177 1103.22 277.186 1104.61C277.194 1106 278.318 1107.1 279.699 1107.09Z" fill="black"/>
<path d="M218.934 1106.91L230.618 1106.85C231.999 1106.84 233.117 1105.72 233.107 1104.33C233.108 1104.27 233.103 1104.21 233.098 1104.15C232.998 1102.86 231.912 1101.84 230.588 1101.85L218.91 1101.91C217.526 1101.92 216.411 1103.04 216.421 1104.42C216.429 1105.82 217.552 1106.92 218.934 1106.91Z" fill="black"/>
<path d="M348.435 1066.1L348.751 1054.42C348.786 1053.04 347.698 1051.88 346.314 1051.85C346.254 1051.85 346.191 1051.85 346.131 1051.85C344.834 1051.91 343.78 1052.96 343.745 1054.29L343.429 1065.96C343.394 1067.34 344.482 1068.49 345.866 1068.53C347.259 1068.56 348.395 1067.48 348.435 1066.1Z" fill="black"/>
<path d="M342.394 1074.16C341.931 1077.5 340.607 1080.73 338.46 1083.76C337.662 1084.9 337.928 1086.46 339.057 1087.26C340.184 1088.05 341.745 1087.79 342.543 1086.66C345.161 1082.96 346.78 1078.99 347.354 1074.85C347.371 1074.73 347.377 1074.62 347.377 1074.5C347.377 1073.27 346.471 1072.2 345.216 1072.03C343.846 1071.83 342.583 1072.79 342.394 1074.16Z" fill="black"/>
<path d="M252.692 1105.28C252.674 1103.89 251.534 1102.79 250.153 1102.81L249.564 1102.82C245.819 1102.84 241.986 1102.61 238.688 1102.38C237.309 1102.29 236.113 1103.33 236.02 1104.71C235.924 1106.09 236.97 1107.28 238.349 1107.38C241.738 1107.61 245.683 1107.85 249.6 1107.82L250.226 1107.82C251.601 1107.8 252.702 1106.67 252.692 1105.3C252.692 1105.29 252.692 1105.28 252.692 1105.28Z" fill="black"/>
<path d="M331.789 1092.64C329.402 1093.93 326.838 1094.88 323.944 1095.55C322.595 1095.86 321.751 1097.2 322.066 1098.55C322.377 1099.9 323.721 1100.74 325.068 1100.43C328.361 1099.67 331.423 1098.53 334.171 1097.04C334.991 1096.59 335.803 1096.11 336.59 1095.6C337.327 1095.12 337.728 1094.32 337.728 1093.5C337.728 1093.03 337.596 1092.56 337.322 1092.14C336.567 1090.98 335.014 1090.65 333.859 1091.41C333.187 1091.84 332.493 1092.26 331.789 1092.64Z" fill="black"/>
<path d="M311.355 1099.88C308.731 1100.58 306.015 1100.91 303.046 1100.88C301.66 1100.87 300.528 1101.97 300.518 1103.36C300.506 1104.74 301.616 1105.87 302.998 1105.88C306.379 1105.91 309.622 1105.52 312.64 1104.72C313.543 1104.48 314.444 1104.2 315.328 1103.89C316.158 1103.59 316.734 1102.91 316.926 1102.11C317.036 1101.65 317.018 1101.16 316.849 1100.69C316.387 1099.38 314.954 1098.7 313.655 1099.17C312.899 1099.43 312.127 1099.68 311.355 1099.88Z" fill="black"/>
<path d="M257.195 1104.58C257.203 1105.97 258.329 1107.08 259.715 1107.08C264.014 1107.05 267.81 1107.07 271.33 1107.14C272.662 1107.16 273.768 1106.15 273.874 1104.84C273.878 1104.79 273.882 1104.74 273.884 1104.68C273.912 1103.3 272.808 1102.16 271.428 1102.13C267.865 1102.06 264.026 1102.05 259.684 1102.07C258.304 1102.08 257.185 1103.18 257.195 1104.58Z" fill="black"/>
<path d="M340.046 1030.83C341.339 1033.91 342.065 1037.45 342.205 1041.33C342.254 1042.71 343.414 1043.79 344.795 1043.74C346.145 1043.69 347.208 1042.58 347.208 1041.24C347.208 1041.21 347.208 1041.18 347.208 1041.15C347.045 1036.67 346.191 1032.54 344.67 1028.9C344.135 1027.62 342.668 1027.02 341.393 1027.55C340.115 1028.08 339.518 1029.55 340.046 1030.83Z" fill="black"/>
<path d="M323.456 1013.22C322.884 1014.48 323.444 1015.96 324.705 1016.53C328.156 1018.1 331.255 1020.07 333.917 1022.38C334.955 1023.29 336.538 1023.18 337.445 1022.14C337.859 1021.67 338.062 1021.08 338.062 1020.5C338.062 1019.8 337.771 1019.1 337.205 1018.61C334.18 1015.97 330.669 1013.74 326.769 1011.97C325.511 1011.4 324.027 1011.96 323.456 1013.22Z" fill="black"/>
<mask id="mask3_156_2" style="mask-type:luminance" maskUnits="userSpaceOnUse" x="0" y="400" width="25" height="24">
<path d="M24.3555 400.266H0.891479V423.687H24.3555V400.266Z" fill="white"/>
</mask>
<g mask="url(#mask3_156_2)">
<path d="M6.80352 411.828C6.80352 414.927 9.31374 417.437 12.4101 417.437C15.5064 417.437 18.0166 414.927 18.0166 411.828C18.0166 408.732 15.5064 406.221 12.4101 406.221C9.31374 406.221 6.80352 408.732 6.80352 411.828ZM23.9233 411.828C23.9233 418.189 18.7685 423.347 12.4101 423.347C6.04588 423.347 0.891064 418.189 0.891064 411.828C0.891064 405.467 6.04588 400.312 12.4101 400.312C18.7685 400.312 23.9233 405.467 23.9233 411.828Z" fill="black"/>
</g>
<path d="M82.07 499.802L70.4166 500.645C69.0386 500.742 67.8378 499.707 67.7406 498.326C67.7349 498.266 67.7349 498.203 67.7349 498.143C67.7349 496.845 68.7384 495.745 70.0593 495.65L81.7069 494.807C83.0878 494.71 84.2858 495.745 84.383 497.126C84.483 498.515 83.4481 499.699 82.07 499.802Z" fill="black"/>
<path d="M8.42858 464.094L8.1656 452.413C8.13703 451.032 9.23041 449.884 10.6144 449.855C10.6747 449.853 10.7375 449.856 10.7975 449.859C12.0939 449.923 13.1433 450.98 13.1719 452.304L13.4352 463.979C13.4636 465.363 12.3704 466.508 10.9863 466.537C9.59358 466.568 8.46287 465.475 8.42858 464.094Z" fill="black"/>
<path d="M7.67273 442.189L7.40974 430.508C7.38117 429.127 8.47455 427.979 9.85859 427.95C9.91884 427.948 9.98166 427.951 10.0416 427.954C11.338 428.018 12.3875 429.075 12.416 430.399L12.6793 442.074C12.7077 443.458 11.6145 444.603 10.2305 444.632C8.83772 444.663 7.70701 443.57 7.67273 442.189Z" fill="black"/>
<path d="M9.0719 394.555L9.03065 382.872C9.02829 381.49 10.1433 380.363 11.5276 380.361C11.5879 380.36 11.6506 380.364 11.7105 380.368C13.0055 380.457 14.0347 381.534 14.0381 382.858L14.0798 394.536C14.0819 395.921 12.9671 397.045 11.5828 397.047C10.1897 397.051 9.07996 395.937 9.0719 394.555Z" fill="black"/>
<path d="M7.93064 371.123L7.61455 359.443C7.5797 358.062 8.66786 356.909 10.0517 356.875C10.112 356.872 10.1748 356.875 10.2348 356.877C11.5315 356.936 12.5857 357.988 12.6203 359.312L12.9367 370.986C12.9714 372.37 11.8834 373.52 10.4995 373.554C9.10688 373.592 7.97121 372.504 7.93064 371.123Z" fill="black"/>
<path d="M128.338 497.194C126.817 497.085 125.247 497.034 123.54 497.034C121.588 497.034 119.446 497.105 116.99 497.251C115.609 497.334 114.426 496.279 114.346 494.901C114.343 494.852 114.337 494.801 114.337 494.747C114.337 493.434 115.366 492.334 116.693 492.251C119.246 492.102 121.488 492.028 123.54 492.028C125.367 492.028 127.054 492.082 128.695 492.202C130.07 492.299 131.122 493.486 131.014 494.878C130.914 496.253 129.716 497.294 128.338 497.194Z" fill="black"/>
<path d="M14.3024 474.754C14.7656 478.096 16.0893 481.329 18.2364 484.36C19.0341 485.492 18.7682 487.053 17.6389 487.851C16.5125 488.648 14.9514 488.383 14.1538 487.253C11.5349 483.559 9.91669 479.585 9.34203 475.443C9.32488 475.325 9.31916 475.211 9.31916 475.097C9.31916 473.864 10.2255 472.792 11.4806 472.621C12.85 472.426 14.1137 473.387 14.3024 474.754Z" fill="black"/>
<path d="M93.3607 493.966L105.011 493.123C106.392 493.023 107.587 494.061 107.69 495.439C107.79 496.828 106.75 498.017 105.371 498.115L93.7238 498.958C92.3429 499.058 91.145 498.02 91.042 496.642C91.0392 496.579 91.0363 496.522 91.0363 496.459C91.0363 495.158 92.0427 494.061 93.3607 493.966Z" fill="black"/>
<path d="M44.4173 499.501C44.4258 498.117 45.558 497.008 46.9389 497.017L47.5279 497.02C51.2732 497.02 55.1043 496.757 58.4007 496.508C59.7788 496.405 60.9824 497.437 61.0854 498.815C61.1911 500.19 60.1533 501.397 58.7753 501.503C55.3873 501.757 51.4447 502.026 47.5279 502.026L46.9017 502.023C45.5266 502.014 44.4173 500.896 44.4173 499.521C44.4173 499.513 44.4173 499.507 44.4173 499.501Z" fill="black"/>
<path d="M159.09 511.043C160.894 514.643 162.183 518.599 162.921 522.802C163.161 524.152 162.249 525.461 160.891 525.698C159.527 525.939 158.229 525.029 157.989 523.668C157.337 519.946 156.199 516.452 154.612 513.285C154.432 512.927 154.349 512.544 154.349 512.167C154.349 511.246 154.852 510.363 155.73 509.928C156.965 509.308 158.469 509.808 159.09 511.043Z" fill="black"/>
<path d="M139.116 499.295C138.087 498.932 137.441 497.966 137.441 496.931C137.441 496.659 137.487 496.379 137.584 496.105C138.041 494.801 139.468 494.112 140.772 494.569C141.564 494.847 142.35 495.153 143.113 495.481C146.23 496.822 149.089 498.678 151.616 500.996C152.634 501.931 152.702 503.515 151.767 504.533C150.833 505.554 149.252 505.622 148.231 504.687C146.118 502.746 143.731 501.199 141.135 500.082C140.477 499.796 139.797 499.533 139.116 499.295Z" fill="black"/>
<path d="M28.0408 492.948C30.428 494.243 32.9926 495.195 35.8859 495.862C37.2354 496.176 38.0788 497.514 37.7643 498.864C37.4526 500.213 36.1089 501.051 34.7623 500.742C31.4687 499.979 28.4067 498.841 25.6592 497.357C24.8386 496.908 24.0267 496.428 23.2405 495.916C22.5028 495.436 22.1026 494.635 22.1026 493.815C22.1026 493.346 22.2341 492.874 22.5085 492.454C23.2633 491.293 24.8158 490.964 25.9708 491.719C26.6427 492.156 27.3374 492.571 28.0408 492.948Z" fill="black"/>
<path d="M76.7415 318.686C76.6214 320.065 75.4092 321.085 74.0283 320.968C69.7455 320.596 65.9601 320.31 62.4464 320.09C61.1169 320.01 60.0963 318.909 60.0963 317.597C60.0963 317.543 60.0963 317.494 60.0991 317.437C60.182 316.059 61.3742 315.01 62.7523 315.096C66.3089 315.313 70.1371 315.604 74.4628 315.979C75.838 316.099 76.8644 317.291 76.7415 318.686Z" fill="black"/>
<path d="M108.934 324.147C107.63 324.036 106.644 322.941 106.644 321.654C106.644 321.585 106.646 321.514 106.652 321.437C106.769 320.062 107.982 319.038 109.357 319.155L110.706 319.273C114.068 319.561 117.539 319.856 120.896 319.99C122.28 320.042 123.357 321.231 123.297 322.589C123.243 323.97 122.079 325.045 120.701 324.991C117.228 324.853 113.697 324.553 110.28 324.262L108.934 324.147Z" fill="black"/>
<path d="M129.973 322.409C129.962 322.297 129.953 322.192 129.953 322.08C129.953 320.842 130.871 319.764 132.129 319.599C135.534 319.15 138.599 318.366 141.455 317.223C141.844 317.06 142.227 316.891 142.602 316.711C143.851 316.122 145.343 316.657 145.932 317.903C146.521 319.15 145.992 320.645 144.743 321.24C144.306 321.445 143.86 321.643 143.356 321.854C140.068 323.172 136.609 324.059 132.787 324.565C131.414 324.745 130.156 323.781 129.973 322.409Z" fill="black"/>
<path d="M83.3883 319.313C83.5198 317.94 84.7435 316.934 86.1215 317.062L89.1092 317.357C91.9882 317.64 94.8644 317.92 97.7377 318.192C99.1158 318.318 100.131 319.533 99.9964 320.916C99.8706 322.292 98.6469 323.307 97.2717 323.175C94.3898 322.903 91.5051 322.62 88.626 322.34L85.6355 322.051C84.3432 321.923 83.374 320.834 83.374 319.561C83.374 319.478 83.3769 319.398 83.3883 319.313Z" fill="black"/>
<path d="M13.8798 337.971C12.5875 341.058 11.8613 344.592 11.7212 348.475C11.6726 349.853 10.5119 350.936 9.13095 350.885C7.78149 350.833 6.71794 349.727 6.71794 348.383C6.71794 348.354 6.71794 348.326 6.71794 348.292C6.8809 343.811 7.73575 339.686 9.25675 336.041C9.79139 334.766 11.2581 334.162 12.5332 334.694C13.8112 335.229 14.4087 336.695 13.8798 337.971Z" fill="black"/>
<path d="M30.4702 320.362C31.042 321.623 30.4817 323.107 29.2208 323.678C25.77 325.242 22.6708 327.209 20.0091 329.528C18.9713 330.437 17.3874 330.328 16.481 329.288C16.0665 328.81 15.8635 328.224 15.8635 327.644C15.8635 326.943 16.1551 326.249 16.7212 325.754C19.746 323.115 23.2569 320.882 27.1566 319.118C28.4146 318.546 29.8984 319.104 30.4702 320.362Z" fill="black"/>
<path d="M161.27 302.979C159.672 307.064 157.505 310.661 154.823 313.686C153.908 314.721 152.324 314.815 151.289 313.895C150.732 313.403 150.449 312.717 150.449 312.025C150.449 311.43 150.655 310.838 151.078 310.361C153.365 307.785 155.226 304.689 156.607 301.158C157.11 299.871 158.563 299.234 159.849 299.737C161.136 300.243 161.773 301.692 161.27 302.979Z" fill="black"/>
<path d="M53.4282 317.085C53.4282 317.105 53.4282 317.125 53.4282 317.145C53.3996 318.526 52.2532 319.621 50.8694 319.59C49.134 319.553 47.41 319.53 45.7432 319.53C43.7218 319.704 41.7177 319.982 39.7878 320.359C38.4298 320.622 37.1146 319.736 36.8516 318.381C36.8202 318.218 36.8059 318.057 36.8059 317.897C36.8059 316.725 37.635 315.679 38.8301 315.444C40.9715 315.027 43.1901 314.721 45.4258 314.535C45.4944 314.527 45.5659 314.524 45.6345 314.524C47.3728 314.524 49.1711 314.544 50.9838 314.587C52.3475 314.615 53.4282 315.73 53.4282 317.085Z" fill="black"/>
<path d="M161.434 276.582C162.812 276.447 164.036 277.451 164.173 278.826C164.579 282.952 164.567 287.094 164.136 291.011C163.987 292.386 162.749 293.378 161.377 293.227C160.096 293.084 159.147 292 159.147 290.74C159.147 290.648 159.15 290.557 159.161 290.462C159.553 286.891 159.564 283.097 159.193 279.321C159.052 277.948 160.059 276.719 161.434 276.582Z" fill="black"/>
<mask id="mask4_156_2" style="mask-type:luminance" maskUnits="userSpaceOnUse" x="0" y="915" width="24" height="24">
<path d="M23.6001 915.413H0.136108V938.835H23.6001V915.413Z" fill="white"/>
</mask>
<g mask="url(#mask4_156_2)">
<path d="M6.04815 926.975C6.04815 930.075 8.55837 932.585 11.6547 932.585C14.751 932.585 17.2612 930.075 17.2612 926.975C17.2612 923.879 14.751 921.369 11.6547 921.369C8.55837 921.369 6.04815 923.879 6.04815 926.975ZM23.168 926.975C23.168 933.337 18.0132 938.494 11.6547 938.494C5.29051 938.494 0.135693 933.337 0.135693 926.975C0.135693 920.614 5.29051 915.459 11.6547 915.459C18.0132 915.459 23.168 920.614 23.168 926.975Z" fill="black"/>
</g>
<path d="M81.3151 1014.95L69.6618 1015.79C68.2837 1015.89 67.0829 1014.85 66.9857 1013.47C66.98 1013.41 66.98 1013.35 66.98 1013.29C66.98 1011.99 67.9835 1010.89 69.3044 1010.8L80.952 1009.95C82.3329 1009.86 83.5309 1010.89 83.6281 1012.27C83.7281 1013.66 82.6932 1014.85 81.3151 1014.95Z" fill="black"/>
<path d="M151.945 1011.24L140.292 1012.08C138.914 1012.18 137.713 1011.14 137.616 1009.76C137.61 1009.7 137.61 1009.64 137.61 1009.58C137.61 1008.28 138.613 1007.18 139.934 1007.09L151.582 1006.24C152.963 1006.15 154.161 1007.18 154.258 1008.56C154.358 1009.95 153.323 1011.13 151.945 1011.24Z" fill="black"/>
<path d="M248.497 1009.01L236.817 1009.31C235.436 1009.34 234.284 1008.25 234.251 1006.87C234.248 1006.81 234.251 1006.75 234.254 1006.69C234.314 1005.39 235.368 1004.34 236.692 1004.3L248.366 1004C249.75 1003.97 250.898 1005.06 250.931 1006.44C250.967 1007.83 249.878 1008.97 248.497 1009.01Z" fill="black"/>
<path d="M175.38 1010.94L163.698 1010.78C162.316 1010.76 161.209 1009.62 161.232 1008.24C161.231 1008.18 161.236 1008.12 161.242 1008.06C161.354 1006.76 162.448 1005.75 163.772 1005.77L175.449 1005.94C176.833 1005.96 177.938 1007.09 177.915 1008.48C177.895 1009.87 176.762 1010.96 175.38 1010.94Z" fill="black"/>
<path d="M270.36 1007.82L258.678 1007.99C257.296 1008.01 256.157 1006.9 256.14 1005.52C256.138 1005.46 256.142 1005.4 256.145 1005.34C256.22 1004.04 257.286 1003 258.61 1002.98L270.287 1002.81C271.671 1002.8 272.807 1003.9 272.824 1005.28C272.844 1006.68 271.742 1007.8 270.36 1007.82Z" fill="black"/>
<path d="M199.554 1010.28L187.877 1010.67C186.496 1010.71 185.336 1009.63 185.292 1008.25C185.289 1008.19 185.291 1008.13 185.293 1008.07C185.344 1006.77 186.389 1005.71 187.712 1005.66L199.384 1005.27C200.768 1005.23 201.925 1006.31 201.968 1007.69C202.015 1009.08 200.935 1010.23 199.554 1010.28Z" fill="black"/>
<path d="M292.356 1008.2L280.673 1008.05C279.291 1008.03 278.183 1006.9 278.203 1005.51C278.202 1005.45 278.208 1005.39 278.213 1005.33C278.323 1004.04 279.416 1003.03 280.741 1003.04L292.418 1003.19C293.802 1003.21 294.908 1004.35 294.887 1005.73C294.869 1007.12 293.737 1008.21 292.356 1008.2Z" fill="black"/>
<path d="M224.263 1009.6L212.582 1009.35C211.201 1009.31 210.103 1008.17 210.136 1006.79C210.135 1006.73 210.141 1006.66 210.147 1006.6C210.269 1005.31 211.371 1004.31 212.695 1004.34L224.371 1004.59C225.754 1004.63 226.85 1005.77 226.817 1007.15C226.786 1008.55 225.645 1009.63 224.263 1009.6Z" fill="black"/>
<path d="M315.047 1011.62L303.588 1009.35C302.233 1009.07 301.35 1007.76 301.622 1006.4C301.633 1006.34 301.65 1006.28 301.665 1006.22C302.01 1004.97 303.269 1004.18 304.568 1004.44L316.022 1006.71C317.379 1006.98 318.26 1008.3 317.987 1009.66C317.715 1011.02 316.403 1011.89 315.047 1011.62Z" fill="black"/>
<path d="M7.67321 979.241L7.41023 967.56C7.38166 966.179 8.47504 965.031 9.85907 965.003C9.91932 965 9.98214 965.003 10.0421 965.006C11.3385 965.071 12.388 966.128 12.4165 967.452L12.6798 979.127C12.7082 980.511 11.615 981.656 10.231 981.684C8.83821 981.715 7.7075 980.623 7.67321 979.241Z" fill="black"/>
<path d="M6.91833 957.336L6.65535 945.655C6.62677 944.274 7.72016 943.126 9.10419 943.098C9.16444 943.095 9.22726 943.098 9.28723 943.101C10.5836 943.166 11.6331 944.223 11.6616 945.547L11.9249 957.222C11.9533 958.606 10.8601 959.751 9.47607 959.779C8.08333 959.81 6.95261 958.718 6.91833 957.336Z" fill="black"/>
<path d="M8.31702 909.703L8.27576 898.019C8.27341 896.638 9.38838 895.511 10.7727 895.509C10.833 895.507 10.8957 895.511 10.9556 895.516C12.2506 895.605 13.2798 896.681 13.2832 898.006L13.3249 909.684C13.327 911.068 12.2123 912.192 10.8279 912.194C9.43485 912.199 8.32508 911.085 8.31702 909.703Z" fill="black"/>
<path d="M7.17527 886.27L6.85918 874.591C6.82433 873.21 7.91249 872.057 9.29638 872.022C9.35661 872.019 9.41945 872.022 9.47943 872.025C10.7761 872.083 11.8304 873.136 11.8649 874.459L12.1813 886.133C12.216 887.517 11.128 888.667 9.74409 888.702C8.35151 888.739 7.21584 887.652 7.17527 886.27Z" fill="black"/>
<path d="M127.583 1012.34C126.062 1012.23 124.492 1012.18 122.785 1012.18C120.833 1012.18 118.691 1012.25 116.235 1012.4C114.854 1012.48 113.671 1011.43 113.591 1010.05C113.588 1010 113.582 1009.95 113.582 1009.89C113.582 1008.58 114.611 1007.48 115.938 1007.4C118.491 1007.25 120.733 1007.18 122.785 1007.18C124.612 1007.18 126.299 1007.23 127.94 1007.35C129.315 1007.45 130.368 1008.63 130.259 1010.03C130.159 1011.4 128.961 1012.44 127.583 1012.34Z" fill="black"/>
<path d="M13.548 989.901C14.0112 993.243 15.3349 996.477 17.4821 999.507C18.2797 1000.64 18.0138 1002.2 16.8845 1003C15.7581 1003.8 14.197 1003.53 13.3994 1002.4C10.7805 998.707 9.1623 994.733 8.58764 990.59C8.57048 990.473 8.56476 990.358 8.56476 990.244C8.56476 989.012 9.47107 987.94 10.7262 987.768C12.0957 987.574 13.3593 988.534 13.548 989.901Z" fill="black"/>
<path d="M92.6053 1009.11L104.256 1008.27C105.637 1008.17 106.832 1009.21 106.935 1010.59C107.035 1011.98 105.994 1013.16 104.616 1013.26L92.9684 1014.11C91.5875 1014.21 90.3896 1013.17 90.2867 1011.79C90.2838 1011.73 90.281 1011.67 90.281 1011.61C90.281 1010.31 91.2873 1009.21 92.6053 1009.11Z" fill="black"/>
<path d="M43.6619 1014.65C43.6705 1013.27 44.8026 1012.16 46.1835 1012.16L46.7725 1012.17C50.5178 1012.17 54.3489 1011.9 57.6454 1011.66C59.0234 1011.55 60.2271 1012.58 60.33 1013.96C60.4358 1015.34 59.3979 1016.54 58.0199 1016.65C54.632 1016.9 50.6894 1017.17 46.7725 1017.17L46.1464 1017.17C44.7712 1017.16 43.6619 1016.04 43.6619 1014.67C43.6619 1014.66 43.6619 1014.65 43.6619 1014.65Z" fill="black"/>
<path d="M27.2854 1008.1C29.6727 1009.39 32.2372 1010.34 35.1305 1011.01C36.48 1011.32 37.3234 1012.66 37.0089 1014.01C36.6973 1015.36 35.3535 1016.2 34.0069 1015.89C30.7133 1015.13 27.6513 1013.99 24.9038 1012.5C24.0833 1012.06 23.2713 1011.58 22.4851 1011.06C21.7475 1010.58 21.3472 1009.78 21.3472 1008.96C21.3472 1008.49 21.4787 1008.02 21.7532 1007.6C22.508 1006.44 24.0604 1006.11 25.2154 1006.87C25.8873 1007.3 26.5821 1007.72 27.2854 1008.1Z" fill="black"/>
<path d="M75.9861 833.834C75.866 835.212 74.6538 836.233 73.2729 836.116C68.9901 835.744 65.2047 835.458 61.691 835.238C60.3616 835.158 59.3409 834.057 59.3409 832.745C59.3409 832.691 59.3409 832.642 59.3437 832.585C59.4267 831.207 60.6189 830.157 61.9969 830.243C65.5535 830.46 69.3818 830.752 73.7075 831.127C75.0827 831.247 76.109 832.439 75.9861 833.834Z" fill="black"/>
<path d="M108.178 839.295C106.875 839.183 105.888 838.088 105.888 836.802C105.888 836.733 105.891 836.662 105.897 836.584C106.014 835.209 107.226 834.186 108.601 834.303L109.951 834.42C113.313 834.709 116.784 835.003 120.14 835.138C121.524 835.189 122.602 836.378 122.542 837.737C122.488 839.117 121.324 840.192 119.946 840.138C116.472 840.001 112.941 839.701 109.525 839.409L108.178 839.295Z" fill="black"/>
<path d="M129.218 837.556C129.207 837.445 129.198 837.339 129.198 837.228C129.198 835.99 130.116 834.912 131.374 834.746C134.779 834.297 137.844 833.514 140.7 832.37C141.089 832.207 141.472 832.039 141.847 831.858C143.096 831.269 144.588 831.804 145.177 833.051C145.766 834.297 145.237 835.792 143.988 836.387C143.551 836.593 143.105 836.79 142.601 837.002C139.314 838.32 135.854 839.206 132.032 839.712C130.659 839.892 129.401 838.929 129.218 837.556Z" fill="black"/>
<path d="M82.6334 834.46C82.7649 833.088 83.9886 832.081 85.3666 832.21L88.3543 832.505C91.2334 832.788 94.1095 833.068 96.9828 833.339C98.3609 833.465 99.3758 834.68 99.2415 836.064C99.1157 837.439 97.892 838.454 96.5168 838.323C93.6349 838.051 90.7502 837.768 87.8711 837.488L84.8806 837.199C83.5883 837.07 82.6191 835.981 82.6191 834.709C82.6191 834.626 82.622 834.546 82.6334 834.46Z" fill="black"/>
<path d="M13.1249 853.118C11.8326 856.206 11.1064 859.74 10.9663 863.622C10.9177 865 9.75698 866.084 8.37607 866.032C7.02661 865.981 5.96306 864.874 5.96306 863.531C5.96306 863.502 5.96306 863.473 5.96306 863.439C6.12602 858.959 6.98087 854.833 8.50187 851.188C9.0365 849.913 10.5032 849.31 11.7783 849.842C13.0563 850.376 13.6538 851.843 13.1249 853.118Z" fill="black"/>
<path d="M29.7158 835.509C30.2876 836.77 29.7273 838.254 28.4664 838.826C25.0156 840.39 21.9164 842.357 19.2547 844.675C18.2169 845.585 16.633 845.476 15.7266 844.435C15.3121 843.958 15.1091 843.372 15.1091 842.791C15.1091 842.091 15.4007 841.396 15.9668 840.901C18.9917 838.263 22.5025 836.03 26.4022 834.266C27.6602 833.694 29.144 834.251 29.7158 835.509Z" fill="black"/>
<path d="M160.516 818.127C158.918 822.212 156.75 825.809 154.069 828.834C153.154 829.869 151.57 829.963 150.535 829.042C149.977 828.551 149.694 827.864 149.694 827.173C149.694 826.578 149.9 825.986 150.323 825.509C152.611 822.933 154.472 819.836 155.853 816.305C156.356 815.019 157.808 814.381 159.095 814.884C160.381 815.39 161.019 816.84 160.516 818.127Z" fill="black"/>
<path d="M52.6733 832.233C52.6733 832.253 52.6733 832.273 52.6733 832.293C52.6447 833.674 51.4983 834.769 50.1145 834.737C48.3791 834.7 46.6551 834.677 44.9883 834.677C42.967 834.852 40.9628 835.129 39.033 835.507C37.6749 835.77 36.3598 834.883 36.0967 833.528C36.0653 833.365 36.051 833.205 36.051 833.045C36.051 831.873 36.8801 830.826 38.0752 830.592C40.2166 830.174 42.4352 829.869 44.6709 829.683C44.7396 829.674 44.811 829.671 44.8796 829.671C46.6179 829.671 48.4163 829.691 50.2289 829.734C51.5926 829.763 52.6733 830.878 52.6733 832.233Z" fill="black"/>
<path d="M160.679 791.729C162.057 791.595 163.281 792.598 163.418 793.973C163.824 798.099 163.813 802.242 163.381 806.159C163.232 807.534 161.994 808.526 160.622 808.374C159.341 808.231 158.392 807.148 158.392 805.887C158.392 805.795 158.395 805.704 158.406 805.61C158.798 802.039 158.809 798.245 158.438 794.468C158.298 793.096 159.304 791.866 160.679 791.729Z" fill="black"/>
<mask id="mask5_156_2" style="mask-type:luminance" maskUnits="userSpaceOnUse" x="185" y="1093" width="24" height="24">
<path d="M208.688 1093.41L185.225 1093.58L185.39 1117L208.853 1116.83L208.688 1093.41Z" fill="white"/>
</mask>
<g mask="url(#mask5_156_2)">
<path d="M191.219 1105.1C191.24 1108.2 193.768 1110.69 196.864 1110.67C199.961 1110.65 202.453 1108.12 202.431 1105.02C202.41 1101.92 199.882 1099.43 196.785 1099.45C193.689 1099.48 191.197 1102 191.219 1105.1ZM208.338 1104.98C208.383 1111.34 203.264 1116.53 196.906 1116.58C190.542 1116.62 185.351 1111.5 185.306 1105.14C185.261 1098.78 190.38 1093.59 196.744 1093.54C203.102 1093.5 208.293 1098.62 208.338 1104.98Z" fill="black"/>
</g>
</svg>
