<svg width="26" height="26" viewBox="0 0 26 26" fill="none" xmlns="http://www.w3.org/2000/svg">
<path d="M10.6221 10.0641C10.4559 10.0806 10.3369 10.2303 10.3369 10.3992V11.0528C10.3369 11.219 10.4532 11.3714 10.6221 11.3879C10.8244 11.4044 10.9905 11.2551 10.9905 11.0528V10.3992C10.9905 10.1969 10.8217 10.0307 10.6221 10.0641Z" fill="#419EDA"/>
<path d="M10.6221 13.8308C10.4559 13.8473 10.3369 13.997 10.3369 14.1658V14.8027C10.3369 14.9688 10.4532 15.1212 10.6221 15.138C10.8244 15.1546 10.9905 15.0049 10.9905 14.8027V14.1658C10.9905 13.9663 10.8217 13.7974 10.6221 13.8308Z" fill="#419EDA"/>
<path d="M10.6221 11.9555C10.4559 11.9723 10.3369 12.1217 10.3369 12.2909V12.9277C10.3369 13.0939 10.4532 13.2462 10.6221 13.2628C10.8244 13.2796 10.9905 13.1299 10.9905 12.9277V12.2909C10.9905 12.0886 10.8217 11.9224 10.6221 11.9555Z" fill="#419EDA"/>
<path d="M10.6221 8.20551C10.4559 8.22203 10.3369 8.37169 10.3369 8.54059V9.17769C10.3369 9.34388 10.4532 9.49625 10.6221 9.51278C10.8244 9.5293 10.9905 9.37995 10.9905 9.17769V8.54059C10.9905 8.33834 10.8217 8.16944 10.6221 8.20551Z" fill="#419EDA"/>
<path d="M12.3785 15.7058C12.2123 15.7223 12.0933 15.872 12.0933 16.0408V16.678C12.0933 16.8441 12.2096 16.9965 12.3785 17.013C12.5807 17.0296 12.7469 16.8799 12.7469 16.678V16.0408C12.7496 15.8413 12.5807 15.6724 12.3785 15.7058Z" fill="#419EDA"/>
<path d="M12.3785 13.8308C12.2123 13.8473 12.0933 13.997 12.0933 14.1658V14.8027C12.0933 14.9688 12.2096 15.1212 12.3785 15.138C12.5807 15.1546 12.7469 15.0049 12.7469 14.8027V14.1658C12.7496 13.9663 12.5807 13.7974 12.3785 13.8308Z" fill="#419EDA"/>
<path d="M8.94712 13.8308C8.78093 13.8473 8.66162 13.997 8.66162 14.1658V14.8027C8.66162 14.9688 8.77822 15.1212 8.94712 15.138C9.14937 15.1546 9.31526 15.0049 9.31526 14.8027V14.1658C9.31526 13.9663 9.14937 13.7974 8.94712 13.8308Z" fill="#419EDA"/>
<path d="M10.6221 15.7058C10.4559 15.7223 10.3369 15.872 10.3369 16.0408V16.678C10.3369 16.8441 10.4532 16.9965 10.6221 17.013C10.8244 17.0296 10.9905 16.8799 10.9905 16.678V16.0408C10.9905 15.8413 10.8217 15.6724 10.6221 15.7058Z" fill="#419EDA"/>
<path d="M8.94712 15.7058C8.78093 15.7223 8.66162 15.872 8.66162 16.0408V16.678C8.66162 16.8441 8.77822 16.9965 8.94712 17.013C9.14937 17.0296 9.31526 16.8799 9.31526 16.678V16.0408C9.31526 15.8413 9.14937 15.6724 8.94712 15.7058Z" fill="#419EDA"/>
<path d="M8.94712 10.0641C8.78093 10.0806 8.66162 10.2303 8.66162 10.3992V11.0528C8.66162 11.219 8.77822 11.3714 8.94712 11.3879C9.14937 11.4044 9.31526 11.2551 9.31526 11.0528V10.3992C9.31526 10.1969 9.14937 10.0307 8.94712 10.0641Z" fill="#419EDA"/>
<path d="M8.94712 11.9555C8.78093 11.9723 8.66162 12.1217 8.66162 12.2909V12.9277C8.66162 13.0939 8.77822 13.2462 8.94712 13.2628C9.14937 13.2796 9.31526 13.1299 9.31526 12.9277V12.2909C9.31526 12.0886 9.14937 11.9224 8.94712 11.9555Z" fill="#419EDA"/>
<path d="M17.9229 14.2157C17.7567 14.2322 17.6377 14.3819 17.6377 14.5508V15.2543C17.6377 15.4563 17.8039 15.6225 18.0058 15.5894C18.172 15.5726 18.2913 15.4232 18.2913 15.2543V14.5508C18.2913 14.3513 18.1221 14.1824 17.9229 14.2157Z" fill="#419EDA"/>
<path d="M16.3827 14.2157C16.2165 14.2322 16.0972 14.3819 16.0972 14.5508V15.2543C16.0972 15.4563 16.2634 15.6225 16.4656 15.5894C16.6318 15.5726 16.7508 15.4232 16.7508 15.2543V14.5508C16.7508 14.3513 16.5819 14.1824 16.3827 14.2157Z" fill="#419EDA"/>
<path d="M18.0058 18.2676C17.8039 18.2508 17.6377 18.4005 17.6377 18.6027V19.3228C17.6377 19.525 17.8039 19.6912 18.0058 19.6579C18.172 19.6413 18.2913 19.4917 18.2913 19.3228V18.6027C18.2913 18.4365 18.1747 18.2869 18.0058 18.2676Z" fill="#419EDA"/>
<path d="M18.0058 16.2596C17.8039 16.2431 17.6377 16.3924 17.6377 16.5947V17.2982C17.6377 17.5005 17.8039 17.6667 18.0058 17.6333C18.172 17.6168 18.2913 17.4671 18.2913 17.2982V16.5947C18.2913 16.4258 18.1747 16.2761 18.0058 16.2596Z" fill="#419EDA"/>
<path d="M16.4656 16.2596C16.2634 16.2431 16.0972 16.3924 16.0972 16.5947V17.2982C16.0972 17.5005 16.2634 17.6667 16.4656 17.6333C16.6318 17.6168 16.7508 17.4671 16.7508 17.2982V16.5947C16.7508 16.4258 16.6318 16.2761 16.4656 16.2596Z" fill="#419EDA"/>
<path d="M16.4656 18.2676C16.2634 18.2508 16.0972 18.4005 16.0972 18.6027V19.3228C16.0972 19.525 16.2634 19.6912 16.4656 19.6579C16.6318 19.6413 16.7508 19.4917 16.7508 19.3228V18.6027C16.7508 18.4365 16.6318 18.2869 16.4656 18.2676Z" fill="#419EDA"/>
<path d="M13.2836 0.949158C6.40101 0.949158 0.820312 6.52985 0.820312 13.4124C0.820312 20.295 6.40101 25.8757 13.2836 25.8757C20.1661 25.8757 25.7468 20.295 25.7468 13.4124C25.7468 6.52985 20.1661 0.949158 13.2836 0.949158ZM12.2284 20.9486H9.31457V18.42H12.2284V20.9486ZM14.455 20.9486H12.8153V18.1706C12.8153 17.9851 12.666 17.8355 12.4803 17.8355H9.06273C8.87701 17.8355 8.72765 17.9851 8.72765 18.1706V20.9513H7.05464V8.64042C7.05464 8.574 7.088 8.50729 7.13789 8.45469C7.37319 8.21939 7.94088 7.71811 8.84665 7.23337C9.93514 6.64615 11.7437 5.94263 14.2888 5.87622C14.3886 5.87622 14.455 5.94263 14.455 6.06194V20.9486ZM19.5125 20.9486H14.9593V13.4458C14.9593 13.2961 15.0756 13.1771 15.2279 13.1771H19.2465C19.3962 13.1771 19.5152 13.2934 19.5152 13.4458V20.9486H19.5125Z" fill="#419EDA"/>
<path d="M12.3785 8.20551C12.2123 8.22203 12.0933 8.37169 12.0933 8.54059V9.17769C12.0933 9.34388 12.2096 9.49625 12.3785 9.51278C12.5807 9.5293 12.7469 9.37995 12.7469 9.17769V8.54059C12.7496 8.33834 12.5807 8.16944 12.3785 8.20551Z" fill="#419EDA"/>
<path d="M12.3785 10.0641C12.2123 10.0806 12.0933 10.2303 12.0933 10.3992V11.0528C12.0933 11.219 12.2096 11.3714 12.3785 11.3879C12.5807 11.4044 12.7469 11.2551 12.7469 11.0528V10.3992C12.7496 10.1969 12.5807 10.0307 12.3785 10.0641Z" fill="#419EDA"/>
<path d="M12.3785 11.9555C12.2123 11.9723 12.0933 12.1217 12.0933 12.2909V12.9277C12.0933 13.0939 12.2096 13.2462 12.3785 13.2628C12.5807 13.2796 12.7469 13.1299 12.7469 12.9277V12.2909C12.7496 12.0886 12.5807 11.9224 12.3785 11.9555Z" fill="#419EDA"/>
<mask id="mask0_70_445" style="mask-type:luminance" maskUnits="userSpaceOnUse" x="14" y="16" width="3" height="5">
<path d="M14.4199 16.6876H16.8433V20.5334H14.4199V16.6876Z" fill="white"/>
</mask>
<g mask="url(#mask0_70_445)">
<path d="M4.39001 -4.39313C-2.49255 -4.39313 -8.07324 1.18787 -8.07324 8.07012C-8.07324 14.9527 -2.49255 20.5334 4.39001 20.5334C11.2726 20.5334 16.8533 14.9527 16.8533 8.07012C16.8533 1.18787 11.2726 -4.39313 4.39001 -4.39313ZM3.33487 15.6063H0.421011V13.0777H3.33487V15.6063ZM5.56144 15.6063H3.92179V12.8283C3.92179 12.6429 3.77243 12.4932 3.58671 12.4932H0.169173C-0.0165491 12.4932 -0.165908 12.6429 -0.165908 12.8283V15.609H-1.83891V3.29813C-1.83891 3.23172 -1.80556 3.1653 -1.75567 3.11271C-1.52036 2.8771 -0.952675 2.37583 -0.0469017 1.89139C1.04159 1.30417 2.85013 0.600646 5.39525 0.534231C5.49502 0.534231 5.56144 0.600646 5.56144 0.719653V15.6063ZM10.6189 15.6063H6.06571V8.10348C6.06571 7.95382 6.18202 7.83481 6.33408 7.83481H10.353C10.5026 7.83481 10.6216 7.95111 10.6216 8.10348V15.6063H10.6189Z" fill="#419EDA"/>
</g>
</svg>
