<svg width="854" height="193" viewBox="0 0 854 193" fill="none" xmlns="http://www.w3.org/2000/svg">
<mask id="path-1-outside-1_99_3" maskUnits="userSpaceOnUse" x="0" y="0" width="854" height="193" fill="black">
<rect fill="white" width="854" height="193"/>
<path d="M6.17278 151C3.13291 151 1.30898 149.581 1.30898 147.149V146.339C1.30898 140.664 9.41531 138.233 9.41531 128.91V29.2025C9.41531 19.8802 1.30898 17.4483 1.30898 11.7739V10.9632C1.30898 8.53135 3.13291 7.11273 6.17278 7.11273H54.0001C111.555 7.11273 143.575 37.3088 143.575 79.867C143.575 122.02 112.366 151 64.133 151H6.17278ZM45.6911 115.94C45.6911 129.113 52.1762 136.814 63.3224 136.814H71.226C90.4786 136.814 105.07 123.438 105.07 96.8903C105.07 57.3719 84.8041 21.2988 56.8373 21.2988H54.8107C49.9469 21.2988 45.6911 23.7307 45.6911 31.0264V115.94ZM204.885 153.027C174.689 153.027 153.41 132.355 153.41 101.754C153.41 71.558 176.716 51.9002 203.669 51.6975C227.786 51.4949 243.998 63.249 243.998 81.0829C243.998 95.269 230.623 107.023 211.573 110.063C204.48 111.279 197.387 111.684 191.51 111.482C196.779 121.615 205.493 127.897 216.842 127.897C226.975 127.897 234.879 123.844 238.527 118.98C241.364 116.143 246.228 117.359 246.025 121.817C245.62 132.963 233.866 153.027 204.885 153.027ZM185.633 85.1361C185.633 90.6079 186.241 95.877 187.457 100.741C191.307 100.943 195.158 100.741 197.59 100.335C206.507 98.7142 211.37 92.4318 211.37 78.4484C211.37 69.5314 206.304 62.4384 199.616 62.4384C191.307 62.4384 185.633 71.7607 185.633 85.1361ZM299.927 152.824C274.392 152.824 255.342 143.299 255.342 129.113C255.342 119.993 261.625 116.143 269.731 116.143C290.2 116.143 283.107 143.907 299.927 143.907C306.007 143.907 310.871 140.867 310.871 132.761C310.871 106.213 257.166 121.817 257.166 82.5016C257.166 64.465 274.595 51.6975 299.927 51.6975C325.665 51.6975 342.688 62.8437 342.688 76.0165C342.688 83.1095 336.608 88.3786 328.907 88.3786C309.452 88.3786 315.735 61.0198 301.751 61.0198C295.469 61.0198 292.429 66.6942 292.429 72.5713C292.429 100.335 344.309 85.7441 344.309 123.033C344.309 139.854 328.097 152.824 299.927 152.824ZM360.174 151C357.337 151 355.31 149.581 355.31 147.149V146.339C355.31 140.462 363.416 138.03 363.416 128.708V90.2026C363.416 80.8803 355.31 78.0431 355.31 73.1793V72.3687C355.31 70.1394 357.134 69.1261 359.971 67.7075L390.572 52.7108C396.247 49.8736 399.692 53.1161 399.692 56.9666V128.708C399.692 138.03 408.812 140.462 408.812 146.339V147.149C408.812 149.581 406.785 151 403.948 151H360.174ZM358.552 21.5015C358.552 9.94995 367.875 1.23565 381.858 1.23565C395.639 1.23565 404.961 9.94995 404.961 21.5015C404.961 32.8503 395.639 41.7673 381.858 41.7673C367.875 41.7673 358.552 32.8503 358.552 21.5015ZM470.125 191.532C440.335 191.532 419.866 179.575 419.866 164.375C419.866 157.89 424.325 151 434.052 151C453.71 151 451.278 181.399 470.531 181.804C479.245 182.007 486.541 173.292 486.541 148.771V144.92C480.866 148.771 473.57 151 465.464 151C440.943 151 417.637 133.571 417.637 102.362C417.637 72.166 440.132 51.6975 465.464 51.6975C476.205 51.6975 484.311 54.94 490.188 60.2092V58.9932C490.188 54.5347 494.039 52.3055 499.916 53.1161L524.843 56.764C528.085 57.1693 529.909 59.3985 529.909 62.4384V63.249C529.909 67.5049 520.992 70.3421 520.992 81.4883V138.03C520.992 173.9 497.687 191.532 470.125 191.532ZM452.291 86.5547C451.481 102.97 458.371 140.462 473.57 141.07C480.461 141.272 486.541 134.99 486.541 124.046V86.96C486.541 73.9899 477.624 61.6278 468.301 61.6278C458.371 61.6278 452.899 70.3421 452.291 86.5547ZM610.309 151.203C607.472 151.203 605.445 149.784 605.445 147.352V146.542C605.445 140.664 613.349 138.233 612.741 128.91L610.715 92.6345C609.701 72.5713 605.851 65.073 596.731 65.073C587.814 65.073 583.558 72.9766 583.558 84.7308V128.91C583.558 138.233 592.678 140.664 592.678 146.542V147.352C592.678 149.784 590.651 151.203 587.612 151.203H543.837C541 151.203 538.974 149.784 538.974 147.352V146.542C538.974 140.664 547.891 138.233 547.891 128.91V88.9866C547.891 79.259 537.352 78.0431 537.352 72.166V71.558C537.352 69.1261 539.176 67.9102 542.013 66.4916L570.386 52.5082C575.452 49.8736 578.087 53.3188 578.087 57.3719V67.0995C583.356 57.3719 593.691 51.6975 607.269 51.6975C624.901 51.6975 643.343 61.6278 645.774 93.8504L648.409 128.91C649.22 138.233 655.705 140.664 655.705 146.542V147.352C655.705 149.784 653.678 151.203 650.841 151.203H610.309ZM714.301 153.027C684.105 153.027 662.826 132.355 662.826 101.754C662.826 71.558 686.132 51.9002 713.085 51.6975C737.202 51.4949 753.414 63.249 753.414 81.0829C753.414 95.269 740.039 107.023 720.989 110.063C713.896 111.279 706.803 111.684 700.926 111.482C706.195 121.615 714.909 127.897 726.258 127.897C736.391 127.897 744.295 123.844 747.943 118.98C750.78 116.143 755.644 117.359 755.441 121.817C755.036 132.963 743.281 153.027 714.301 153.027ZM695.049 85.1361C695.049 90.6079 695.657 95.877 696.873 100.741C700.723 100.943 704.574 100.741 707.006 100.335C715.923 98.7142 720.786 92.4318 720.786 78.4484C720.786 69.5314 715.72 62.4384 709.032 62.4384C700.723 62.4384 695.049 71.7607 695.049 85.1361ZM771.244 151C768.406 151 766.582 149.581 766.582 147.149V146.339C766.582 140.664 774.689 138.233 774.689 128.91V88.5813C774.689 79.0564 764.759 78.2457 764.759 72.3687V71.7607C764.759 69.3288 766.38 67.5049 769.42 65.8836L798.197 52.5082C803.466 50.0763 805.29 52.9135 805.29 56.9666V72.166C809.546 58.9932 819.071 51.6975 833.46 51.6975C845.416 51.6975 852.307 60.4118 852.307 71.7607C852.307 81.8936 848.659 90.8105 836.905 90.8105C818.26 90.8105 826.569 71.7607 816.436 71.7607C809.951 71.7607 808.938 82.2989 808.938 91.2159V128.91C808.938 138.233 819.679 140.664 819.679 146.339V147.149C819.679 149.581 817.855 151 814.815 151H771.244Z"/>
</mask>
<path d="M6.17278 151C3.13291 151 1.30898 149.581 1.30898 147.149V146.339C1.30898 140.664 9.41531 138.233 9.41531 128.91V29.2025C9.41531 19.8802 1.30898 17.4483 1.30898 11.7739V10.9632C1.30898 8.53135 3.13291 7.11273 6.17278 7.11273H54.0001C111.555 7.11273 143.575 37.3088 143.575 79.867C143.575 122.02 112.366 151 64.133 151H6.17278ZM45.6911 115.94C45.6911 129.113 52.1762 136.814 63.3224 136.814H71.226C90.4786 136.814 105.07 123.438 105.07 96.8903C105.07 57.3719 84.8041 21.2988 56.8373 21.2988H54.8107C49.9469 21.2988 45.6911 23.7307 45.6911 31.0264V115.94ZM204.885 153.027C174.689 153.027 153.41 132.355 153.41 101.754C153.41 71.558 176.716 51.9002 203.669 51.6975C227.786 51.4949 243.998 63.249 243.998 81.0829C243.998 95.269 230.623 107.023 211.573 110.063C204.48 111.279 197.387 111.684 191.51 111.482C196.779 121.615 205.493 127.897 216.842 127.897C226.975 127.897 234.879 123.844 238.527 118.98C241.364 116.143 246.228 117.359 246.025 121.817C245.62 132.963 233.866 153.027 204.885 153.027ZM185.633 85.1361C185.633 90.6079 186.241 95.877 187.457 100.741C191.307 100.943 195.158 100.741 197.59 100.335C206.507 98.7142 211.37 92.4318 211.37 78.4484C211.37 69.5314 206.304 62.4384 199.616 62.4384C191.307 62.4384 185.633 71.7607 185.633 85.1361ZM299.927 152.824C274.392 152.824 255.342 143.299 255.342 129.113C255.342 119.993 261.625 116.143 269.731 116.143C290.2 116.143 283.107 143.907 299.927 143.907C306.007 143.907 310.871 140.867 310.871 132.761C310.871 106.213 257.166 121.817 257.166 82.5016C257.166 64.465 274.595 51.6975 299.927 51.6975C325.665 51.6975 342.688 62.8437 342.688 76.0165C342.688 83.1095 336.608 88.3786 328.907 88.3786C309.452 88.3786 315.735 61.0198 301.751 61.0198C295.469 61.0198 292.429 66.6942 292.429 72.5713C292.429 100.335 344.309 85.7441 344.309 123.033C344.309 139.854 328.097 152.824 299.927 152.824ZM360.174 151C357.337 151 355.31 149.581 355.31 147.149V146.339C355.31 140.462 363.416 138.03 363.416 128.708V90.2026C363.416 80.8803 355.31 78.0431 355.31 73.1793V72.3687C355.31 70.1394 357.134 69.1261 359.971 67.7075L390.572 52.7108C396.247 49.8736 399.692 53.1161 399.692 56.9666V128.708C399.692 138.03 408.812 140.462 408.812 146.339V147.149C408.812 149.581 406.785 151 403.948 151H360.174ZM358.552 21.5015C358.552 9.94995 367.875 1.23565 381.858 1.23565C395.639 1.23565 404.961 9.94995 404.961 21.5015C404.961 32.8503 395.639 41.7673 381.858 41.7673C367.875 41.7673 358.552 32.8503 358.552 21.5015ZM470.125 191.532C440.335 191.532 419.866 179.575 419.866 164.375C419.866 157.89 424.325 151 434.052 151C453.71 151 451.278 181.399 470.531 181.804C479.245 182.007 486.541 173.292 486.541 148.771V144.92C480.866 148.771 473.57 151 465.464 151C440.943 151 417.637 133.571 417.637 102.362C417.637 72.166 440.132 51.6975 465.464 51.6975C476.205 51.6975 484.311 54.94 490.188 60.2092V58.9932C490.188 54.5347 494.039 52.3055 499.916 53.1161L524.843 56.764C528.085 57.1693 529.909 59.3985 529.909 62.4384V63.249C529.909 67.5049 520.992 70.3421 520.992 81.4883V138.03C520.992 173.9 497.687 191.532 470.125 191.532ZM452.291 86.5547C451.481 102.97 458.371 140.462 473.57 141.07C480.461 141.272 486.541 134.99 486.541 124.046V86.96C486.541 73.9899 477.624 61.6278 468.301 61.6278C458.371 61.6278 452.899 70.3421 452.291 86.5547ZM610.309 151.203C607.472 151.203 605.445 149.784 605.445 147.352V146.542C605.445 140.664 613.349 138.233 612.741 128.91L610.715 92.6345C609.701 72.5713 605.851 65.073 596.731 65.073C587.814 65.073 583.558 72.9766 583.558 84.7308V128.91C583.558 138.233 592.678 140.664 592.678 146.542V147.352C592.678 149.784 590.651 151.203 587.612 151.203H543.837C541 151.203 538.974 149.784 538.974 147.352V146.542C538.974 140.664 547.891 138.233 547.891 128.91V88.9866C547.891 79.259 537.352 78.0431 537.352 72.166V71.558C537.352 69.1261 539.176 67.9102 542.013 66.4916L570.386 52.5082C575.452 49.8736 578.087 53.3188 578.087 57.3719V67.0995C583.356 57.3719 593.691 51.6975 607.269 51.6975C624.901 51.6975 643.343 61.6278 645.774 93.8504L648.409 128.91C649.22 138.233 655.705 140.664 655.705 146.542V147.352C655.705 149.784 653.678 151.203 650.841 151.203H610.309ZM714.301 153.027C684.105 153.027 662.826 132.355 662.826 101.754C662.826 71.558 686.132 51.9002 713.085 51.6975C737.202 51.4949 753.414 63.249 753.414 81.0829C753.414 95.269 740.039 107.023 720.989 110.063C713.896 111.279 706.803 111.684 700.926 111.482C706.195 121.615 714.909 127.897 726.258 127.897C736.391 127.897 744.295 123.844 747.943 118.98C750.78 116.143 755.644 117.359 755.441 121.817C755.036 132.963 743.281 153.027 714.301 153.027ZM695.049 85.1361C695.049 90.6079 695.657 95.877 696.873 100.741C700.723 100.943 704.574 100.741 707.006 100.335C715.923 98.7142 720.786 92.4318 720.786 78.4484C720.786 69.5314 715.72 62.4384 709.032 62.4384C700.723 62.4384 695.049 71.7607 695.049 85.1361ZM771.244 151C768.406 151 766.582 149.581 766.582 147.149V146.339C766.582 140.664 774.689 138.233 774.689 128.91V88.5813C774.689 79.0564 764.759 78.2457 764.759 72.3687V71.7607C764.759 69.3288 766.38 67.5049 769.42 65.8836L798.197 52.5082C803.466 50.0763 805.29 52.9135 805.29 56.9666V72.166C809.546 58.9932 819.071 51.6975 833.46 51.6975C845.416 51.6975 852.307 60.4118 852.307 71.7607C852.307 81.8936 848.659 90.8105 836.905 90.8105C818.26 90.8105 826.569 71.7607 816.436 71.7607C809.951 71.7607 808.938 82.2989 808.938 91.2159V128.91C808.938 138.233 819.679 140.664 819.679 146.339V147.149C819.679 149.581 817.855 151 814.815 151H771.244Z" fill="white"/>
<path d="M6.17278 151V150C4.79306 150 3.82298 149.676 3.2198 149.201C2.64798 148.751 2.30898 148.09 2.30898 147.149H1.30898H0.308983C0.308983 148.641 0.881946 149.905 1.98206 150.772C3.05081 151.614 4.51263 152 6.17278 152V151ZM1.30898 147.149H2.30898V146.339H1.30898H0.308983V147.149H1.30898ZM1.30898 146.339H2.30898C2.30898 145.179 2.71716 144.152 3.41456 143.077C4.13488 141.966 5.07967 140.92 6.13681 139.625C8.21342 137.081 10.4153 133.918 10.4153 128.91H9.41531H8.41531C8.41531 133.225 6.56403 135.939 4.58748 138.36C3.61804 139.548 2.53624 140.756 1.73663 141.988C0.914091 143.257 0.308983 144.662 0.308983 146.339H1.30898ZM9.41531 128.91H10.4153V29.2025H9.41531H8.41531V128.91H9.41531ZM9.41531 29.2025H10.4153C10.4153 24.195 8.21342 21.0317 6.13681 18.4879C5.07967 17.1929 4.13488 16.1464 3.41456 15.0359C2.71716 13.9607 2.30898 12.9337 2.30898 11.7739H1.30898H0.308983C0.308983 13.4512 0.914091 14.8561 1.73663 16.1242C2.53624 17.357 3.61804 18.565 4.58748 19.7526C6.56403 22.1739 8.41531 24.8877 8.41531 29.2025H9.41531ZM1.30898 11.7739H2.30898V10.9632H1.30898H0.308983V11.7739H1.30898ZM1.30898 10.9632H2.30898C2.30898 10.0225 2.64798 9.36204 3.2198 8.91152C3.82298 8.43629 4.79306 8.11273 6.17278 8.11273V7.11273V6.11273C4.51263 6.11273 3.05081 6.49849 1.98206 7.34053C0.881947 8.20729 0.308983 9.47208 0.308983 10.9632H1.30898ZM6.17278 7.11273V8.11273H54.0001V7.11273V6.11273H6.17278V7.11273ZM54.0001 7.11273V8.11273C82.6104 8.11273 104.752 15.6174 119.724 28.2937C134.68 40.9562 142.575 58.8557 142.575 79.867H143.575H144.575C144.575 58.32 136.46 39.8424 121.017 26.7673C105.59 13.7061 82.9447 6.11273 54.0001 6.11273V7.11273ZM143.575 79.867H142.575C142.575 100.684 134.876 118.189 121.27 130.499C107.656 142.817 88.0507 150 64.133 150V151V152C88.4479 152 108.563 144.693 122.612 131.982C136.669 119.264 144.575 101.203 144.575 79.867H143.575ZM64.133 151V150H6.17278V151V152H64.133V151ZM45.6911 115.94H44.6911C44.6911 122.678 46.3489 128.154 49.5627 131.962C52.7963 135.793 57.503 137.814 63.3224 137.814V136.814V135.814C57.9956 135.814 53.8866 133.984 51.0911 130.672C48.2758 127.336 46.6911 122.375 46.6911 115.94H45.6911ZM63.3224 136.814V137.814H71.226V136.814V135.814H63.3224V136.814ZM71.226 136.814V137.814C81.0921 137.814 89.8373 134.38 96.1078 127.48C102.371 120.588 106.07 110.344 106.07 96.8903H105.07H104.07C104.07 109.985 100.473 119.702 94.6276 126.135C88.7893 132.56 80.6125 135.814 71.226 135.814V136.814ZM105.07 96.8903H106.07C106.07 76.9744 100.966 57.8898 92.2936 43.7523C83.6277 29.6254 71.2957 20.2988 56.8373 20.2988V21.2988V22.2988C70.3457 22.2988 82.13 31.0088 90.5888 44.7981C99.041 58.5767 104.07 77.2879 104.07 96.8903H105.07ZM56.8373 21.2988V20.2988H54.8107V21.2988V22.2988H56.8373V21.2988ZM54.8107 21.2988V20.2988C52.2274 20.2988 49.6715 20.9439 47.7543 22.6868C45.8189 24.4463 44.6911 27.181 44.6911 31.0264H45.6911H46.6911C46.6911 27.5761 47.6913 25.447 49.0997 24.1667C50.5263 22.8697 52.5302 22.2988 54.8107 22.2988V21.2988ZM45.6911 31.0264H44.6911V115.94H45.6911H46.6911V31.0264H45.6911ZM203.669 51.6975L203.677 52.6975L203.678 52.6975L203.669 51.6975ZM211.573 110.063L211.416 109.075L211.404 109.077L211.573 110.063ZM191.51 111.482L191.544 110.482L189.832 110.423L190.623 111.943L191.51 111.482ZM238.527 118.98L237.82 118.273L237.769 118.323L237.727 118.38L238.527 118.98ZM246.025 121.817L245.026 121.772L245.026 121.781L246.025 121.817ZM187.457 100.741L186.487 100.983L186.666 101.701L187.404 101.739L187.457 100.741ZM197.59 100.335L197.754 101.322L197.761 101.321L197.769 101.319L197.59 100.335ZM204.885 153.027V152.027C190.02 152.027 177.414 146.942 168.527 138.155C159.642 129.369 154.41 116.816 154.41 101.754H153.41H152.41C152.41 117.294 157.818 130.377 167.121 139.577C176.423 148.775 189.554 154.027 204.885 154.027V153.027ZM153.41 101.754H154.41C154.41 72.164 177.214 52.8965 203.677 52.6975L203.669 51.6975L203.662 50.6976C176.217 50.9039 152.41 70.952 152.41 101.754H153.41ZM203.669 51.6975L203.678 52.6975C215.584 52.5974 225.439 55.451 232.289 60.4351C239.115 65.4012 242.998 72.5054 242.998 81.0829H243.998H244.998C244.998 71.8265 240.776 64.1367 233.466 58.8179C226.181 53.5172 215.871 50.5949 203.661 50.6976L203.669 51.6975ZM243.998 81.0829H242.998C242.998 94.5566 230.237 106.072 211.416 109.076L211.573 110.063L211.731 111.051C231.009 107.974 244.998 95.9814 244.998 81.0829H243.998ZM211.573 110.063L211.404 109.077C204.379 110.282 197.354 110.683 191.544 110.482L191.51 111.482L191.475 112.481C197.42 112.686 204.581 112.276 211.742 111.049L211.573 110.063ZM191.51 111.482L190.623 111.943C196.032 122.346 205.057 128.897 216.842 128.897V127.897V126.897C205.93 126.897 197.526 120.883 192.397 111.02L191.51 111.482ZM216.842 127.897V128.897C227.211 128.897 235.447 124.753 239.327 119.58L238.527 118.98L237.727 118.38C234.311 122.935 226.739 126.897 216.842 126.897V127.897ZM238.527 118.98L239.234 119.687C240.401 118.52 241.937 118.23 243.104 118.613C244.209 118.975 245.108 119.976 245.026 121.772L246.025 121.817L247.024 121.863C247.145 119.2 245.713 117.364 243.727 116.713C241.804 116.082 239.49 116.603 237.82 118.273L238.527 118.98ZM246.025 121.817L245.026 121.781C244.64 132.394 233.323 152.027 204.885 152.027V153.027V154.027C234.408 154.027 246.6 133.533 247.024 121.854L246.025 121.817ZM185.633 85.1361H184.633C184.633 90.6807 185.249 96.0319 186.487 100.983L187.457 100.741L188.427 100.498C187.233 95.722 186.633 90.5351 186.633 85.1361H185.633ZM187.457 100.741L187.404 101.739C191.309 101.945 195.235 101.742 197.754 101.322L197.59 100.335L197.425 99.3491C195.081 99.7398 191.306 99.942 187.509 99.7422L187.457 100.741ZM197.59 100.335L197.769 101.319C202.438 100.47 206.147 98.3725 208.658 94.5797C211.142 90.827 212.37 85.5351 212.37 78.4484H211.37H210.37C210.37 85.3451 209.167 90.1862 206.99 93.4758C204.839 96.7254 201.659 98.5793 197.411 99.3516L197.59 100.335ZM211.37 78.4484H212.37C212.37 73.8094 211.054 69.5933 208.81 66.5109C206.561 63.4227 203.346 61.4384 199.616 61.4384V62.4384V63.4384C202.575 63.4384 205.236 65.0006 207.193 67.6881C209.154 70.3816 210.37 74.1705 210.37 78.4484H211.37ZM199.616 62.4384V61.4384C195.032 61.4384 191.248 64.0275 188.656 68.2483C186.076 72.4516 184.633 78.3223 184.633 85.1361H185.633H186.633C186.633 78.5745 188.027 73.0964 190.361 69.2947C192.684 65.5105 195.892 63.4384 199.616 63.4384V62.4384ZM299.927 152.824V151.824C287.268 151.824 276.293 149.46 268.522 145.402C260.744 141.339 256.342 135.687 256.342 129.113H255.342H254.342C254.342 136.725 259.466 142.928 267.596 147.175C275.734 151.425 287.052 153.824 299.927 153.824V152.824ZM255.342 129.113H256.342C256.342 124.803 257.814 121.867 260.128 119.984C262.475 118.074 265.819 117.143 269.731 117.143V116.143V115.143C265.537 115.143 261.687 116.137 258.866 118.432C256.012 120.755 254.342 124.303 254.342 129.113H255.342ZM269.731 116.143V117.143C274.583 117.143 277.713 118.772 279.995 121.17C282.327 123.622 283.825 126.927 285.274 130.409C286.692 133.818 288.078 137.447 290.201 140.182C292.387 142.998 295.377 144.907 299.927 144.907V143.907V142.907C296.068 142.907 293.636 141.345 291.781 138.956C289.864 136.485 288.59 133.173 287.12 129.641C285.681 126.182 284.064 122.546 281.444 119.792C278.773 116.985 275.114 115.143 269.731 115.143V116.143ZM299.927 143.907V144.907C303.119 144.907 306.127 144.11 308.347 142.118C310.586 140.108 311.871 137.02 311.871 132.761H310.871H309.871C309.871 136.608 308.724 139.093 307.011 140.629C305.279 142.184 302.815 142.907 299.927 142.907V143.907ZM310.871 132.761H311.871C311.871 129.262 310.982 126.404 309.394 124.035C307.814 121.677 305.58 119.86 302.977 118.369C297.823 115.416 290.946 113.603 284.326 111.467C277.618 109.303 271.086 106.789 266.223 102.46C261.415 98.1818 258.166 92.064 258.166 82.5016H257.166H256.166C256.166 92.597 259.631 99.2719 264.893 103.955C270.099 108.587 276.993 111.203 283.712 113.371C290.517 115.566 297.067 117.288 301.982 120.104C304.414 121.497 306.376 123.124 307.733 125.148C309.081 127.16 309.871 129.623 309.871 132.761H310.871ZM257.166 82.5016H258.166C258.166 73.8417 262.338 66.4275 269.634 61.1459C276.948 55.8509 287.418 52.6975 299.927 52.6975V51.6975V50.6975C287.104 50.6975 276.194 53.9279 268.461 59.5258C260.71 65.137 256.166 73.1248 256.166 82.5016H257.166ZM299.927 51.6975V52.6975C312.664 52.6975 323.167 55.4572 330.449 59.7773C337.74 64.1026 341.688 69.905 341.688 76.0165H342.688H343.688C343.688 68.9552 339.124 62.5981 331.47 58.0572C323.806 53.511 312.928 50.6975 299.927 50.6975V51.6975ZM342.688 76.0165H341.688C341.688 82.4487 336.171 87.3786 328.907 87.3786V88.3786V89.3786C337.045 89.3786 343.688 83.7704 343.688 76.0165H342.688ZM328.907 88.3786V87.3786C324.32 87.3786 321.332 85.7832 319.158 83.4259C316.936 81.0166 315.516 77.7628 314.212 74.3428C312.937 71.0006 311.753 67.429 309.994 64.7464C308.181 61.9805 305.671 60.0198 301.751 60.0198V61.0198V62.0198C304.823 62.0198 306.772 63.4789 308.321 65.8429C309.926 68.29 311.009 71.5581 312.343 75.0556C313.648 78.4753 315.179 82.0613 317.688 84.7818C320.245 87.5542 323.767 89.3786 328.907 89.3786V88.3786ZM301.751 61.0198V60.0198C298.264 60.0198 295.64 61.6137 293.922 64.0086C292.227 66.3708 291.429 69.4773 291.429 72.5713H292.429H293.429C293.429 69.7882 294.151 67.119 295.547 65.1747C296.918 63.2631 298.956 62.0198 301.751 62.0198V61.0198ZM292.429 72.5713H291.429C291.429 76.2065 292.281 79.1986 293.804 81.7014C295.322 84.1965 297.474 86.1503 299.995 87.767C304.989 90.969 311.635 92.9606 318.042 95.1755C324.532 97.419 330.841 99.9063 335.54 104.07C340.18 108.182 343.309 113.985 343.309 123.033H344.309H345.309C345.309 113.437 341.953 107.081 336.866 102.573C331.838 98.1174 325.176 95.5256 318.696 93.2853C312.133 91.0164 305.809 89.1195 301.075 86.0834C298.732 84.581 296.831 82.8284 295.512 80.6616C294.198 78.5025 293.429 75.8771 293.429 72.5713H292.429ZM344.309 123.033H343.309C343.309 131.085 339.443 138.241 332.105 143.419C324.746 148.612 313.871 151.824 299.927 151.824V152.824V153.824C314.153 153.824 325.469 150.55 333.258 145.053C341.07 139.541 345.309 131.802 345.309 123.033H344.309ZM359.971 67.7075L359.531 66.8095L359.524 66.8131L359.971 67.7075ZM390.572 52.7108L391.013 53.6088L391.02 53.6052L390.572 52.7108ZM360.174 151V150C358.909 150 357.926 149.683 357.285 149.192C356.672 148.724 356.31 148.055 356.31 147.149H355.31H354.31C354.31 148.676 354.961 149.933 356.07 150.781C357.152 151.608 358.601 152 360.174 152V151ZM355.31 147.149H356.31V146.339H355.31H354.31V147.149H355.31ZM355.31 146.339H356.31C356.31 145.12 356.724 144.051 357.421 142.951C358.14 141.815 359.087 140.748 360.141 139.444C362.214 136.878 364.416 133.715 364.416 128.708H363.416H362.416C362.416 133.023 360.565 135.737 358.585 138.187C357.613 139.39 356.533 140.616 355.732 141.881C354.909 143.18 354.31 144.619 354.31 146.339H355.31ZM363.416 128.708H364.416V90.2026H363.416H362.416V128.708H363.416ZM363.416 90.2026H364.416C364.416 85.2013 362.221 81.9386 360.138 79.3866C359.069 78.0778 358.13 77.065 357.398 76.0102C356.69 74.9886 356.31 74.1016 356.31 73.1793H355.31H354.31C354.31 74.6888 354.944 75.9804 355.755 77.1501C356.543 78.2865 357.63 79.4776 358.588 80.6514C360.558 83.0646 362.416 85.8816 362.416 90.2026H363.416ZM355.31 73.1793H356.31V72.3687H355.31H354.31V73.1793H355.31ZM355.31 72.3687H356.31C356.31 71.5952 356.598 71.0439 357.235 70.4867C357.931 69.8774 358.974 69.3242 360.418 68.6019L359.971 67.7075L359.524 66.8131C358.131 67.5094 356.843 68.1722 355.918 68.9815C354.934 69.8429 354.31 70.9128 354.31 72.3687H355.31ZM359.971 67.7075L360.411 68.6055L391.013 53.6088L390.572 52.7108L390.132 51.8128L359.531 66.8095L359.971 67.7075ZM390.572 52.7108L391.02 53.6052C393.65 52.2899 395.553 52.4768 396.748 53.1895C397.963 53.9148 398.692 55.3272 398.692 56.9666H399.692H400.692C400.692 54.7556 399.698 52.6214 397.773 51.4721C395.826 50.3102 393.169 50.2945 390.125 51.8164L390.572 52.7108ZM399.692 56.9666H398.692V128.708H399.692H400.692V56.9666H399.692ZM399.692 128.708H398.692C398.692 133.756 401.19 136.934 403.512 139.488C404.697 140.791 405.763 141.86 406.572 142.996C407.358 144.099 407.812 145.152 407.812 146.339H408.812H409.812C409.812 144.587 409.125 143.132 408.201 141.835C407.3 140.571 406.087 139.347 404.992 138.143C402.754 135.681 400.692 132.981 400.692 128.708H399.692ZM408.812 146.339H407.812V147.149H408.812H409.812V146.339H408.812ZM408.812 147.149H407.812C407.812 148.055 407.449 148.724 406.836 149.192C406.195 149.683 405.213 150 403.948 150V151V152C405.52 152 406.97 151.608 408.051 150.781C409.161 149.933 409.812 148.676 409.812 147.149H408.812ZM403.948 151V150H360.174V151V152H403.948V151ZM358.552 21.5015H359.552C359.552 10.6104 368.312 2.23565 381.858 2.23565V1.23565V0.235651C367.437 0.235651 357.552 9.2895 357.552 21.5015H358.552ZM381.858 1.23565V2.23565C395.195 2.23565 403.961 10.6049 403.961 21.5015H404.961H405.961C405.961 9.29499 396.083 0.235651 381.858 0.235651V1.23565ZM404.961 21.5015H403.961C403.961 32.2015 395.188 40.7673 381.858 40.7673V41.7673V42.7673C396.089 42.7673 405.961 33.4991 405.961 21.5015H404.961ZM381.858 41.7673V40.7673C368.319 40.7673 359.552 32.196 359.552 21.5015H358.552H357.552C357.552 33.5046 367.43 42.7673 381.858 42.7673V41.7673ZM470.531 181.804L470.554 180.804L470.552 180.804L470.531 181.804ZM486.541 144.92H487.541V143.033L485.979 144.093L486.541 144.92ZM490.188 60.2092L489.521 60.9537L491.188 62.4488V60.2092H490.188ZM499.916 53.1161L500.061 52.1266L500.053 52.1255L499.916 53.1161ZM524.843 56.764L524.698 57.7534L524.709 57.7549L524.719 57.7562L524.843 56.764ZM452.291 86.5547L453.29 86.604L453.291 86.5922L452.291 86.5547ZM473.57 141.07L473.53 142.069L473.541 142.069L473.57 141.07ZM470.125 191.532V190.532C455.35 190.532 442.963 187.564 434.308 182.778C425.641 177.985 420.866 171.471 420.866 164.375H419.866H418.866C418.866 172.479 424.326 179.543 433.34 184.528C442.367 189.52 455.11 192.532 470.125 192.532V191.532ZM419.866 164.375H420.866C420.866 161.353 421.906 158.26 424.047 155.933C426.172 153.624 429.442 152 434.052 152V151V150C428.934 150 425.112 151.822 422.575 154.579C420.055 157.318 418.866 160.913 418.866 164.375H419.866ZM434.052 151V152C443.211 152 447.257 158.984 451.569 166.736C453.68 170.531 455.858 174.494 458.751 177.512C461.687 180.574 465.385 182.696 470.51 182.804L470.531 181.804L470.552 180.804C466.05 180.709 462.833 178.879 460.195 176.128C457.515 173.332 455.462 169.619 453.317 165.764C449.118 158.216 444.551 150 434.052 150V151ZM470.531 181.804L470.507 182.804C475.282 182.915 479.607 180.545 482.677 175.046C485.711 169.611 487.541 161.102 487.541 148.771H486.541H485.541C485.541 160.961 483.722 169.07 480.93 174.072C478.174 179.01 474.493 180.896 470.554 180.804L470.531 181.804ZM486.541 148.771H487.541V144.92H486.541H485.541V148.771H486.541ZM486.541 144.92L485.979 144.093C480.485 147.821 473.389 150 465.464 150V151V152C473.752 152 481.247 149.721 487.102 145.748L486.541 144.92ZM465.464 151V150C441.424 150 418.637 132.951 418.637 102.362H417.637H416.637C416.637 134.192 440.461 152 465.464 152V151ZM417.637 102.362H418.637C418.637 72.7074 440.695 52.6975 465.464 52.6975V51.6975V50.6975C439.569 50.6975 416.637 71.6245 416.637 102.362H417.637ZM465.464 51.6975V52.6975C475.99 52.6975 483.85 55.8691 489.521 60.9537L490.188 60.2092L490.856 59.4646C484.773 54.011 476.42 50.6975 465.464 50.6975V51.6975ZM490.188 60.2092H491.188V58.9932H490.188H489.188V60.2092H490.188ZM490.188 58.9932H491.188C491.188 57.0952 491.983 55.7598 493.361 54.9374C494.794 54.082 496.97 53.7193 499.779 54.1068L499.916 53.1161L500.053 52.1255C496.985 51.7023 494.297 52.049 492.336 53.2201C490.319 54.4243 489.188 56.4328 489.188 58.9932H490.188ZM499.916 53.1161L499.771 54.1056L524.698 57.7534L524.843 56.764L524.988 55.7745L500.061 52.1267L499.916 53.1161ZM524.843 56.764L524.719 57.7562C526.133 57.9331 527.162 58.4942 527.838 59.2704C528.517 60.0488 528.909 61.1211 528.909 62.4384H529.909H530.909C530.909 60.7158 530.39 59.1535 529.346 57.9561C528.3 56.7564 526.795 56.0002 524.967 55.7717L524.843 56.764ZM529.909 62.4384H528.909V63.249H529.909H530.909V62.4384H529.909ZM529.909 63.249H528.909C528.909 63.9543 528.542 64.6996 527.737 65.6999C527.343 66.1901 526.877 66.702 526.351 67.2756C525.832 67.842 525.26 68.4621 524.688 69.1388C522.369 71.8793 519.992 75.5965 519.992 81.4883H520.992H521.992C521.992 76.2338 524.075 72.9593 526.214 70.4307C526.756 69.7901 527.299 69.2007 527.825 68.6271C528.344 68.0607 528.854 67.5023 529.295 66.9539C530.162 65.8769 530.909 64.6717 530.909 63.249H529.909ZM520.992 81.4883H519.992V138.03H520.992H521.992V81.4883H520.992ZM520.992 138.03H519.992C519.992 155.739 514.246 168.837 505.202 177.51C496.149 186.193 483.696 190.532 470.125 190.532V191.532V192.532C484.116 192.532 497.097 188.055 506.587 178.954C516.086 169.844 521.992 156.191 521.992 138.03H520.992ZM452.291 86.5547L451.293 86.5054C450.881 94.8383 452.419 108.431 455.971 120.033C457.747 125.834 460.047 131.206 462.907 135.187C465.759 139.157 469.287 141.899 473.53 142.069L473.57 141.07L473.61 140.071C470.255 139.936 467.221 137.764 464.532 134.02C461.85 130.288 459.628 125.147 457.883 119.447C454.393 108.047 452.891 94.6864 453.29 86.604L452.291 86.5547ZM473.57 141.07L473.541 142.069C481.202 142.295 487.541 135.322 487.541 124.046H486.541H485.541C485.541 134.658 479.72 140.25 473.6 140.07L473.57 141.07ZM486.541 124.046H487.541V86.96H486.541H485.541V124.046H486.541ZM486.541 86.96H487.541C487.541 80.2572 485.241 73.721 481.728 68.8456C478.233 63.9945 473.409 60.6278 468.301 60.6278V61.6278V62.6278C472.516 62.6278 476.811 65.4421 480.105 70.0146C483.382 74.5628 485.541 80.6928 485.541 86.96H486.541ZM468.301 61.6278V60.6278C462.984 60.6278 458.82 62.9902 455.958 67.4733C453.135 71.8943 451.599 78.3321 451.292 86.5172L452.291 86.5547L453.291 86.5922C453.592 78.5647 455.096 72.539 457.643 68.5497C460.151 64.6225 463.689 62.6278 468.301 62.6278V61.6278ZM612.741 128.91L611.743 128.966L611.743 128.975L612.741 128.91ZM610.715 92.6345L609.716 92.6849L609.716 92.6902L610.715 92.6345ZM542.013 66.4916L541.571 65.5946L541.566 65.5971L542.013 66.4916ZM570.386 52.5082L570.828 53.4051L570.837 53.4004L570.847 53.3954L570.386 52.5082ZM578.087 67.0995H577.087L578.966 67.5758L578.087 67.0995ZM645.774 93.8504L646.772 93.7755L646.772 93.7752L645.774 93.8504ZM648.409 128.91L647.412 128.985L647.413 128.997L648.409 128.91ZM610.309 151.203V150.203C609.044 150.203 608.062 149.885 607.421 149.395C606.808 148.926 606.445 148.258 606.445 147.352H605.445H604.445C604.445 148.879 605.096 150.135 606.206 150.984C607.288 151.811 608.737 152.203 610.309 152.203V151.203ZM605.445 147.352H606.445V146.542H605.445H604.445V147.352H605.445ZM605.445 146.542H606.445C606.445 145.315 606.852 144.242 607.525 143.139C608.221 141.996 609.123 140.936 610.118 139.622C612.076 137.037 614.066 133.859 613.739 128.845L612.741 128.91L611.743 128.975C612.024 133.284 610.366 135.983 608.524 138.414C607.62 139.607 606.583 140.84 605.817 142.098C605.027 143.394 604.445 144.829 604.445 146.542H605.445ZM612.741 128.91L613.74 128.854L611.713 92.5787L610.715 92.6345L609.716 92.6902L611.743 128.966L612.741 128.91ZM610.715 92.6345L611.713 92.584C611.206 82.5399 609.987 75.4627 607.654 70.8766C606.476 68.5599 604.994 66.8389 603.143 65.7053C601.293 64.5716 599.151 64.073 596.731 64.073V65.073V66.073C598.871 66.073 600.631 66.5116 602.099 67.4108C603.567 68.3101 604.821 69.7176 605.871 71.7834C607.997 75.9623 609.21 82.6659 609.716 92.6849L610.715 92.6345ZM596.731 65.073V64.073C591.92 64.073 588.312 66.2331 585.956 69.9596C583.636 73.6285 582.558 78.7576 582.558 84.7308H583.558H584.558C584.558 78.9498 585.609 74.25 587.646 71.0285C589.647 67.8647 592.626 66.073 596.731 66.073V65.073ZM583.558 84.7308H582.558V128.91H583.558H584.558V84.7308H583.558ZM583.558 128.91H582.558C582.558 133.959 585.057 137.137 587.378 139.691C588.563 140.994 589.63 142.063 590.439 143.198C591.225 144.302 591.678 145.354 591.678 146.542H592.678H593.678C593.678 144.79 592.992 143.335 592.068 142.038C591.167 140.773 589.953 139.549 588.858 138.345C586.62 135.883 584.558 133.184 584.558 128.91H583.558ZM592.678 146.542H591.678V147.352H592.678H593.678V146.542H592.678ZM592.678 147.352H591.678C591.678 148.255 591.318 148.919 590.688 149.387C590.026 149.879 588.991 150.203 587.612 150.203V151.203V152.203C589.272 152.203 590.771 151.817 591.881 150.992C593.024 150.143 593.678 148.881 593.678 147.352H592.678ZM587.612 151.203V150.203H543.837V151.203V152.203H587.612V151.203ZM543.837 151.203V150.203C542.573 150.203 541.59 149.885 540.949 149.395C540.336 148.926 539.974 148.258 539.974 147.352H538.974H537.974C537.974 148.879 538.625 150.135 539.734 150.984C540.816 151.811 542.265 152.203 543.837 152.203V151.203ZM538.974 147.352H539.974V146.542H538.974H537.974V147.352H538.974ZM538.974 146.542H539.974C539.974 145.348 540.419 144.292 541.187 143.19C541.978 142.054 543.021 140.986 544.179 139.682C546.452 137.126 548.891 133.951 548.891 128.91H547.891H546.891C546.891 133.192 544.871 135.894 542.685 138.353C541.614 139.558 540.427 140.782 539.546 142.047C538.642 143.344 537.974 144.797 537.974 146.542H538.974ZM547.891 128.91H548.891V88.9866H547.891H546.891V128.91H547.891ZM547.891 88.9866H548.891C548.891 83.6682 545.964 80.677 543.272 78.3726C541.891 77.1911 540.671 76.2641 539.741 75.2349C538.845 74.2445 538.352 73.2957 538.352 72.166H537.352H536.352C536.352 73.9748 537.177 75.3819 538.257 76.5764C539.302 77.7321 540.717 78.819 541.971 79.8921C544.548 82.0968 546.891 84.5775 546.891 88.9866H547.891ZM537.352 72.166H538.352V71.558H537.352H536.352V72.166H537.352ZM537.352 71.558H538.352C538.352 70.6445 538.675 69.9832 539.315 69.363C540.003 68.6964 541.04 68.0962 542.461 67.386L542.013 66.4916L541.566 65.5971C540.149 66.3055 538.856 67.0226 537.923 67.9266C536.942 68.877 536.352 70.0396 536.352 71.558H537.352ZM542.013 66.4916L542.456 67.3885L570.828 53.4051L570.386 52.5082L569.944 51.6112L541.571 65.5946L542.013 66.4916ZM570.386 52.5082L570.847 53.3954C573.152 52.1969 574.622 52.4983 575.509 53.2115C576.48 53.9916 577.087 55.5183 577.087 57.3719H578.087H579.087C579.087 55.1724 578.376 52.95 576.763 51.6528C575.066 50.2888 572.686 50.1849 569.924 51.6209L570.386 52.5082ZM578.087 57.3719H577.087V67.0995H578.087H579.087V57.3719H578.087ZM578.087 67.0995L578.966 67.5758C584.027 58.2328 593.982 52.6975 607.269 52.6975V51.6975V50.6975C593.4 50.6975 582.685 56.5111 577.207 66.6233L578.087 67.0995ZM607.269 51.6975V52.6975C615.903 52.6975 624.657 55.1272 631.547 61.4284C638.431 67.7243 643.575 77.9971 644.777 93.9257L645.774 93.8504L646.772 93.7752C645.542 77.481 640.249 66.6775 632.897 59.9526C625.549 53.233 616.267 50.6975 607.269 50.6975V51.6975ZM645.774 93.8504L644.777 93.9253L647.412 128.985L648.409 128.91L649.406 128.835L646.772 93.7755L645.774 93.8504ZM648.409 128.91L647.413 128.997C647.84 133.916 649.781 137.027 651.537 139.584C653.323 142.185 654.705 143.98 654.705 146.542H655.705H656.705C656.705 143.226 654.844 140.867 653.185 138.452C651.496 135.992 649.788 133.227 649.405 128.824L648.409 128.91ZM655.705 146.542H654.705V147.352H655.705H656.705V146.542H655.705ZM655.705 147.352H654.705C654.705 148.258 654.342 148.926 653.729 149.395C653.088 149.885 652.106 150.203 650.841 150.203V151.203V152.203C652.413 152.203 653.863 151.811 654.944 150.984C656.054 150.135 656.705 148.879 656.705 147.352H655.705ZM650.841 151.203V150.203H610.309V151.203V152.203H650.841V151.203ZM713.085 51.6975L713.093 52.6975L713.094 52.6975L713.085 51.6975ZM720.989 110.063L720.832 109.075L720.82 109.077L720.989 110.063ZM700.926 111.482L700.96 110.482L699.248 110.423L700.039 111.943L700.926 111.482ZM747.943 118.98L747.236 118.273L747.185 118.323L747.143 118.38L747.943 118.98ZM755.441 121.817L754.442 121.772L754.442 121.781L755.441 121.817ZM696.873 100.741L695.903 100.983L696.082 101.701L696.82 101.739L696.873 100.741ZM707.006 100.335L707.17 101.322L707.177 101.321L707.185 101.319L707.006 100.335ZM714.301 153.027V152.027C699.436 152.027 686.83 146.942 677.943 138.155C669.058 129.369 663.826 116.816 663.826 101.754H662.826H661.826C661.826 117.294 667.234 130.377 676.537 139.577C685.839 148.775 698.97 154.027 714.301 154.027V153.027ZM662.826 101.754H663.826C663.826 72.164 686.63 52.8965 713.093 52.6975L713.085 51.6975L713.078 50.6976C685.633 50.9039 661.826 70.952 661.826 101.754H662.826ZM713.085 51.6975L713.094 52.6975C725 52.5974 734.855 55.451 741.705 60.4351C748.53 65.4012 752.414 72.5054 752.414 81.0829H753.414H754.414C754.414 71.8265 750.192 64.1367 742.882 58.8179C735.597 53.5172 725.287 50.5949 713.077 50.6976L713.085 51.6975ZM753.414 81.0829H752.414C752.414 94.5566 739.653 106.072 720.832 109.076L720.989 110.063L721.147 111.051C740.425 107.974 754.414 95.9814 754.414 81.0829H753.414ZM720.989 110.063L720.82 109.077C713.795 110.282 706.77 110.683 700.96 110.482L700.926 111.482L700.891 112.481C706.836 112.686 713.997 112.276 721.158 111.049L720.989 110.063ZM700.926 111.482L700.039 111.943C705.448 122.346 714.473 128.897 726.258 128.897V127.897V126.897C715.346 126.897 706.942 120.883 701.813 111.02L700.926 111.482ZM726.258 127.897V128.897C736.627 128.897 744.863 124.753 748.743 119.58L747.943 118.98L747.143 118.38C743.727 122.935 736.155 126.897 726.258 126.897V127.897ZM747.943 118.98L748.65 119.687C749.817 118.52 751.353 118.23 752.52 118.613C753.625 118.975 754.524 119.976 754.442 121.772L755.441 121.817L756.44 121.863C756.561 119.2 755.129 117.364 753.143 116.713C751.22 116.082 748.906 116.603 747.236 118.273L747.943 118.98ZM755.441 121.817L754.442 121.781C754.056 132.394 742.739 152.027 714.301 152.027V153.027V154.027C743.824 154.027 756.016 133.533 756.44 121.854L755.441 121.817ZM695.049 85.1361H694.049C694.049 90.6807 694.665 96.0319 695.903 100.983L696.873 100.741L697.843 100.498C696.649 95.722 696.049 90.5351 696.049 85.1361H695.049ZM696.873 100.741L696.82 101.739C700.725 101.945 704.651 101.742 707.17 101.322L707.006 100.335L706.841 99.3491C704.497 99.7398 700.721 99.942 696.925 99.7422L696.873 100.741ZM707.006 100.335L707.185 101.319C711.854 100.47 715.563 98.3725 718.074 94.5797C720.558 90.827 721.786 85.5351 721.786 78.4484H720.786H719.786C719.786 85.3451 718.583 90.1862 716.406 93.4758C714.255 96.7254 711.075 98.5793 706.827 99.3516L707.006 100.335ZM720.786 78.4484H721.786C721.786 73.8094 720.47 69.5933 718.226 66.5109C715.977 63.4227 712.762 61.4384 709.032 61.4384V62.4384V63.4384C711.991 63.4384 714.652 65.0006 716.609 67.6881C718.57 70.3816 719.786 74.1705 719.786 78.4484H720.786ZM709.032 62.4384V61.4384C704.448 61.4384 700.664 64.0275 698.072 68.2483C695.492 72.4516 694.049 78.3223 694.049 85.1361H695.049H696.049C696.049 78.5745 697.443 73.0964 699.777 69.2947C702.1 65.5105 705.308 63.4384 709.032 63.4384V62.4384ZM769.42 65.8836L768.998 64.9768L768.973 64.9883L768.949 65.0012L769.42 65.8836ZM798.197 52.5082L797.778 51.6002L797.776 51.6013L798.197 52.5082ZM805.29 72.166H804.29L806.242 72.4734L805.29 72.166ZM771.244 151V150C769.979 150 769.061 149.683 768.48 149.211C767.924 148.759 767.582 148.092 767.582 147.149H766.582H765.582C765.582 148.639 766.153 149.897 767.218 150.763C768.258 151.608 769.671 152 771.244 152V151ZM766.582 147.149H767.582V146.339H766.582H765.582V147.149H766.582ZM766.582 146.339H767.582C767.582 145.179 767.991 144.152 768.688 143.077C769.408 141.966 770.353 140.92 771.41 139.625C773.487 137.081 775.689 133.918 775.689 128.91H774.689H773.689C773.689 133.225 771.837 135.939 769.861 138.36C768.891 139.548 767.81 140.756 767.01 141.988C766.188 143.257 765.582 144.662 765.582 146.339H766.582ZM774.689 128.91H775.689V88.5813H774.689H773.689V128.91H774.689ZM774.689 88.5813H775.689C775.689 83.3718 772.925 80.5337 770.374 78.3478C769.07 77.2295 767.929 76.3615 767.059 75.3789C766.228 74.4407 765.759 73.5142 765.759 72.3687H764.759H763.759C763.759 74.1616 764.53 75.5404 765.561 76.7048C766.553 77.8247 767.895 78.8567 769.073 79.8663C771.488 81.9361 773.689 84.2659 773.689 88.5813H774.689ZM764.759 72.3687H765.759V71.7607H764.759H763.759V72.3687H764.759ZM764.759 71.7607H765.759C765.759 69.8943 766.956 68.3309 769.89 66.7659L769.42 65.8836L768.949 65.0012C765.804 66.6788 763.759 68.7633 763.759 71.7607H764.759ZM769.42 65.8836L769.841 66.7904L798.619 53.415L798.197 52.5082L797.776 51.6013L768.998 64.9768L769.42 65.8836ZM798.197 52.5082L798.616 53.4161C801.126 52.2578 802.419 52.5337 803.086 53.0795C803.837 53.6936 804.29 55.0128 804.29 56.9666H805.29H806.29C806.29 54.8673 805.831 52.7413 804.353 51.5315C802.791 50.2534 800.538 50.3266 797.778 51.6002L798.197 52.5082ZM805.29 56.9666H804.29V72.166H805.29H806.29V56.9666H805.29ZM805.29 72.166L806.242 72.4734C808.318 66.0455 811.657 61.1201 816.168 57.7971C820.678 54.4751 826.438 52.6975 833.46 52.6975V51.6975V50.6975C826.092 50.6975 819.895 52.5678 814.982 56.1868C810.07 59.8048 806.518 65.1137 804.339 71.8586L805.29 72.166ZM833.46 51.6975V52.6975C839.178 52.6975 843.61 54.7728 846.622 58.1399C849.645 61.5207 851.307 66.2839 851.307 71.7607H852.307H853.307C853.307 65.8886 851.523 60.6203 848.112 56.8066C844.689 52.9794 839.698 50.6975 833.46 50.6975V51.6975ZM852.307 71.7607H851.307C851.307 76.7359 850.406 81.2646 848.187 84.5225C846.012 87.7156 842.488 89.8105 836.905 89.8105V90.8105V91.8105C843.076 91.8105 847.253 89.447 849.84 85.6484C852.383 81.9146 853.307 76.9183 853.307 71.7607H852.307ZM836.905 90.8105V89.8105C832.421 89.8105 829.704 88.6699 827.932 87.0879C826.135 85.4846 825.176 83.3151 824.431 80.9816C824.051 79.7885 823.76 78.674 823.407 77.5002C823.068 76.371 822.688 75.2537 822.173 74.2725C821.654 73.2844 820.976 72.3898 820.016 71.748C819.047 71.1001 817.868 70.7607 816.436 70.7607V71.7607V72.7607C817.538 72.7607 818.315 73.0166 818.905 73.4105C819.503 73.8104 819.983 74.4041 820.402 75.2019C820.824 76.0067 821.16 76.9729 821.492 78.0761C821.81 79.1347 822.147 80.4015 822.526 81.5896C823.301 84.0185 824.394 86.6116 826.6 88.5801C828.83 90.57 832.066 91.8105 836.905 91.8105V90.8105ZM816.436 71.7607V70.7607C814.502 70.7607 812.96 71.5625 811.783 72.8804C810.634 74.1667 809.846 75.9251 809.293 77.8714C808.189 81.7632 807.938 86.7461 807.938 91.2159H808.938H809.938C809.938 86.7687 810.194 82.0239 811.217 78.4174C811.729 76.6146 812.41 75.1811 813.275 74.2128C814.111 73.2761 815.128 72.7607 816.436 72.7607V71.7607ZM808.938 91.2159H807.938V128.91H808.938H809.938V91.2159H808.938ZM808.938 128.91H807.938C807.938 134.022 810.915 137.217 813.63 139.727C815.026 141.018 816.285 142.071 817.242 143.184C818.178 144.274 818.679 145.264 818.679 146.339H819.679H820.679C820.679 144.577 819.837 143.135 818.759 141.881C817.702 140.651 816.276 139.45 814.987 138.258C812.331 135.803 809.938 133.12 809.938 128.91H808.938ZM819.679 146.339H818.679V147.149H819.679H820.679V146.339H819.679ZM819.679 147.149H818.679C818.679 148.09 818.34 148.751 817.768 149.201C817.165 149.676 816.195 150 814.815 150V151V152C816.475 152 817.937 151.614 819.006 150.772C820.106 149.905 820.679 148.641 820.679 147.149H819.679ZM814.815 151V150H771.244V151V152H814.815V151Z" fill="#2979AD" mask="url(#path-1-outside-1_99_3)"/>
</svg>
