<svg width="1095" height="1177" viewBox="0 0 1095 1177" fill="none" xmlns="http://www.w3.org/2000/svg">
<g opacity="0.2">
<mask id="mask0_130_14" style="mask-type:luminance" maskUnits="userSpaceOnUse" x="940" y="143" width="25" height="24">
<path d="M940.854 143.258H964.318V166.679H940.854V143.258Z" fill="white"/>
</mask>
<g mask="url(#mask0_130_14)">
<path d="M958.406 154.82C958.406 157.919 955.896 160.429 952.799 160.429C949.703 160.429 947.193 157.919 947.193 154.82C947.193 151.723 949.703 149.213 952.799 149.213C955.896 149.213 958.406 151.723 958.406 154.82ZM941.286 154.82C941.286 161.181 946.441 166.339 952.799 166.339C959.164 166.339 964.318 161.181 964.318 154.82C964.318 148.458 959.164 143.304 952.799 143.304C946.441 143.304 941.286 148.458 941.286 154.82Z" fill="black"/>
</g>
<mask id="mask1_130_14" style="mask-type:luminance" maskUnits="userSpaceOnUse" x="785" y="0" width="38" height="23">
<path d="M785.652 0.112152H822.244V22.6441H785.652V0.112152Z" fill="white"/>
</mask>
<g mask="url(#mask1_130_14)">
<path d="M800.965 1.29872L786.91 15.0134C785.26 16.6231 785.232 19.2648 786.839 20.9116C788.448 22.5613 791.09 22.5956 792.74 20.9859L803.807 10.1874L814.605 21.2518C816.215 22.9015 818.857 22.9329 820.506 21.3233C821.344 20.5056 821.764 19.4221 821.764 18.3385C821.764 17.2864 821.37 16.2342 820.578 15.4251L806.866 1.37019C805.253 -0.279463 802.612 -0.308054 800.965 1.29872Z" fill="black"/>
</g>
<path d="M883.139 242.793L894.792 243.637C896.17 243.734 897.371 242.699 897.468 241.318C897.474 241.258 897.474 241.195 897.474 241.135C897.474 239.837 896.471 238.736 895.15 238.642L883.502 237.799C882.121 237.701 880.923 238.736 880.826 240.117C880.726 241.507 881.761 242.69 883.139 242.793Z" fill="black"/>
<path d="M956.781 207.086L957.044 195.405C957.072 194.024 955.979 192.876 954.595 192.847C954.535 192.845 954.472 192.848 954.412 192.851C953.116 192.915 952.066 193.972 952.038 195.296L951.774 206.971C951.746 208.355 952.839 209.5 954.223 209.529C955.616 209.56 956.747 208.467 956.781 207.086Z" fill="black"/>
<path d="M957.536 185.181L957.799 173.5C957.828 172.118 956.734 170.971 955.35 170.942C955.29 170.939 955.227 170.943 955.167 170.946C953.871 171.01 952.822 172.067 952.793 173.391L952.53 185.066C952.501 186.45 953.594 187.595 954.979 187.624C956.371 187.654 957.502 186.562 957.536 185.181Z" fill="black"/>
<path d="M956.138 137.547L956.179 125.864C956.181 124.482 955.066 123.355 953.682 123.353C953.622 123.351 953.559 123.356 953.499 123.36C952.204 123.449 951.175 124.526 951.171 125.85L951.13 137.528C951.128 138.912 952.242 140.036 953.627 140.039C955.02 140.043 956.13 138.929 956.138 137.547Z" fill="black"/>
<path d="M957.279 114.115L957.595 102.435C957.63 101.054 956.542 99.9012 955.158 99.8665C955.097 99.8635 955.035 99.8663 954.975 99.8691C953.678 99.9277 952.624 100.98 952.589 102.304L952.273 113.978C952.238 115.361 953.326 116.511 954.71 116.546C956.103 116.583 957.238 115.496 957.279 114.115Z" fill="black"/>
<path d="M836.872 240.186C838.393 240.077 839.962 240.026 841.669 240.026C843.622 240.026 845.763 240.097 848.219 240.243C849.6 240.326 850.784 239.271 850.864 237.893C850.867 237.844 850.872 237.793 850.872 237.738C850.872 236.426 849.843 235.325 848.517 235.243C845.963 235.094 843.722 235.02 841.669 235.02C839.842 235.02 838.155 235.074 836.514 235.194C835.139 235.291 834.087 236.478 834.196 237.87C834.296 239.245 835.494 240.286 836.872 240.186Z" fill="black"/>
<path d="M950.907 217.745C950.443 221.088 949.12 224.321 946.973 227.352C946.175 228.484 946.441 230.045 947.57 230.843C948.697 231.64 950.258 231.374 951.055 230.245C953.674 226.551 955.292 222.577 955.867 218.434C955.884 218.317 955.89 218.203 955.89 218.089C955.89 216.856 954.984 215.784 953.728 215.613C952.359 215.418 951.095 216.379 950.907 217.745Z" fill="black"/>
<path d="M871.849 236.958L860.198 236.115C858.817 236.015 857.622 237.052 857.519 238.43C857.419 239.82 858.46 241.009 859.838 241.106L871.486 241.95C872.867 242.05 874.065 241.012 874.167 239.634C874.17 239.571 874.173 239.514 874.173 239.451C874.173 238.15 873.167 237.052 871.849 236.958Z" fill="black"/>
<path d="M920.792 242.493C920.784 241.109 919.651 240 918.271 240.009L917.682 240.011C913.936 240.011 910.105 239.748 906.809 239.5C905.431 239.397 904.227 240.429 904.124 241.807C904.018 243.182 905.056 244.389 906.434 244.494C909.822 244.749 913.765 245.018 917.682 245.018L918.308 245.015C919.683 245.006 920.792 243.888 920.792 242.513C920.792 242.505 920.792 242.499 920.792 242.493Z" fill="black"/>
<path d="M806.119 254.035C804.315 257.634 803.026 261.591 802.288 265.794C802.048 267.144 802.96 268.453 804.318 268.69C805.682 268.93 806.98 268.021 807.22 266.66C807.872 262.938 809.01 259.444 810.597 256.276C810.777 255.919 810.86 255.536 810.86 255.159C810.86 254.238 810.357 253.354 809.479 252.92C808.244 252.3 806.74 252.8 806.119 254.035Z" fill="black"/>
<path d="M826.093 242.287C827.122 241.924 827.768 240.958 827.768 239.923C827.768 239.651 827.722 239.371 827.625 239.097C827.168 237.793 825.741 237.104 824.437 237.561C823.645 237.839 822.859 238.144 822.096 238.473C818.979 239.814 816.12 241.67 813.593 243.988C812.575 244.923 812.507 246.507 813.442 247.525C814.376 248.546 815.957 248.614 816.978 247.679C819.091 245.738 821.478 244.191 824.074 243.073C824.732 242.788 825.412 242.524 826.093 242.287Z" fill="black"/>
<path d="M937.169 235.94C934.781 237.235 932.217 238.187 929.324 238.853C927.974 239.168 927.131 240.506 927.445 241.855C927.757 243.205 929.101 244.043 930.447 243.734C933.741 242.97 936.803 241.833 939.55 240.349C940.371 239.9 941.183 239.42 941.969 238.908C942.707 238.427 943.107 237.627 943.107 236.806C943.107 236.338 942.975 235.866 942.701 235.446C941.946 234.285 940.394 233.956 939.239 234.711C938.567 235.148 937.872 235.563 937.169 235.94Z" fill="black"/>
<path d="M888.468 61.6783C888.588 63.0563 889.8 64.077 891.181 63.9598C895.464 63.5881 899.249 63.3022 902.763 63.0821C904.093 63.002 905.113 61.9013 905.113 60.589C905.113 60.5347 905.113 60.4861 905.11 60.4289C905.027 59.0509 903.835 58.0016 902.457 58.0874C898.901 58.3046 895.072 58.5963 890.747 58.9708C889.371 59.0909 888.345 60.2831 888.468 61.6783Z" fill="black"/>
<path d="M856.276 67.139C857.579 67.0275 858.566 65.9325 858.566 64.6459C858.566 64.5773 858.563 64.5058 858.557 64.4286C858.44 63.0535 857.228 62.0299 855.853 62.1471L854.503 62.2644C851.141 62.5531 847.67 62.8476 844.314 62.982C842.93 63.0334 841.852 64.2228 841.912 65.5808C841.966 66.9617 843.13 68.0367 844.508 67.9824C847.982 67.8452 851.513 67.545 854.929 67.2534L856.276 67.139Z" fill="black"/>
<path d="M835.236 65.4008C835.248 65.2893 835.256 65.1835 835.256 65.072C835.256 63.8341 834.338 62.7562 833.081 62.5904C829.675 62.1415 826.611 61.3581 823.754 60.2145C823.366 60.0516 822.982 59.8829 822.608 59.7028C821.359 59.1138 819.866 59.6484 819.277 60.895C818.688 62.1415 819.217 63.6368 820.467 64.2315C820.904 64.4373 821.35 64.6346 821.853 64.8461C825.141 66.1642 828.6 67.0505 832.423 67.5565C833.795 67.7366 835.053 66.7731 835.236 65.4008Z" fill="black"/>
<path d="M881.821 62.3044C881.689 60.932 880.466 59.9257 879.087 60.0543L876.1 60.3488C873.221 60.6318 870.345 60.912 867.471 61.1836C866.093 61.3094 865.078 62.5245 865.213 63.9083C865.338 65.2835 866.562 66.2984 867.937 66.1669C870.819 65.8953 873.704 65.6123 876.583 65.3321L879.573 65.0433C880.866 64.9147 881.835 63.8254 881.835 62.5531C881.835 62.4702 881.832 62.3901 881.821 62.3044Z" fill="black"/>
<path d="M951.329 80.9623C952.621 84.0501 953.348 87.5838 953.488 91.4664C953.536 92.8444 954.697 93.928 956.078 93.8765C957.427 93.8251 958.491 92.7186 958.491 91.3749C958.491 91.3463 958.491 91.3177 958.491 91.2834C958.328 86.8033 957.473 82.6778 955.952 79.0325C955.418 77.7574 953.951 77.1541 952.676 77.6859C951.398 78.2205 950.8 79.6872 951.329 80.9623Z" fill="black"/>
<path d="M934.739 63.3536C934.167 64.6145 934.727 66.0983 935.988 66.6701C939.439 68.234 942.538 70.201 945.2 72.5197C946.238 73.4288 947.822 73.3202 948.728 72.2795C949.142 71.8021 949.345 71.216 949.345 70.6356C949.345 69.9351 949.054 69.2404 948.488 68.7458C945.463 66.1069 941.952 63.874 938.052 62.11C936.794 61.5382 935.311 62.0957 934.739 63.3536Z" fill="black"/>
<path d="M803.939 45.9708C805.537 50.0563 807.704 53.653 810.386 56.6778C811.301 57.7128 812.885 57.8071 813.92 56.8865C814.477 56.3948 814.76 55.7086 814.76 55.0167C814.76 54.422 814.554 53.8302 814.131 53.3528C811.844 50.7768 809.983 47.6805 808.602 44.1496C808.099 42.863 806.646 42.2255 805.36 42.7286C804.073 43.2347 803.436 44.6842 803.939 45.9708Z" fill="black"/>
<path d="M911.781 60.0772C911.781 60.0972 911.781 60.1172 911.781 60.1373C911.809 61.5182 912.956 62.6132 914.34 62.5817C916.075 62.5446 917.799 62.5217 919.466 62.5217C921.487 62.6961 923.491 62.9734 925.421 63.3508C926.779 63.6138 928.094 62.7275 928.357 61.3724C928.389 61.2094 928.403 61.0493 928.403 60.8892C928.403 59.717 927.574 58.6706 926.379 58.4361C924.238 58.0187 922.019 57.7128 919.783 57.527C919.715 57.5184 919.643 57.5155 919.574 57.5155C917.836 57.5155 916.038 57.5355 914.225 57.5784C912.861 57.607 911.781 58.722 911.781 60.0772Z" fill="black"/>
<path d="M803.775 19.5735C802.397 19.4391 801.174 20.4426 801.037 21.8178C800.631 25.9434 800.642 30.0861 801.074 34.0029C801.222 35.3781 802.46 36.3702 803.833 36.2187C805.114 36.0757 806.063 34.9922 806.063 33.7313C806.063 33.6398 806.06 33.5484 806.048 33.454C805.657 29.8831 805.645 26.0892 806.017 22.3124C806.157 20.9401 805.151 19.7107 803.775 19.5735Z" fill="black"/>
</g>
<g opacity="0.2">
<mask id="mask2_130_14" style="mask-type:luminance" maskUnits="userSpaceOnUse" x="940" y="658" width="24" height="24">
<path d="M940.099 658.405H963.563V681.826H940.099V658.405Z" fill="white"/>
</mask>
<g mask="url(#mask2_130_14)">
<path d="M957.651 669.967C957.651 673.066 955.14 675.577 952.044 675.577C948.948 675.577 946.437 673.066 946.437 669.967C946.437 666.871 948.948 664.361 952.044 664.361C955.14 664.361 957.651 666.871 957.651 669.967ZM940.531 669.967C940.531 676.329 945.686 681.486 952.044 681.486C958.408 681.486 963.563 676.329 963.563 669.967C963.563 663.606 958.408 658.451 952.044 658.451C945.686 658.451 940.531 663.606 940.531 669.967Z" fill="black"/>
</g>
<path d="M882.384 757.941L894.037 758.784C895.415 758.881 896.616 757.847 896.713 756.466C896.719 756.406 896.719 756.343 896.719 756.283C896.719 754.985 895.715 753.884 894.394 753.79L882.747 752.946C881.366 752.849 880.168 753.884 880.071 755.265C879.971 756.654 881.006 757.838 882.384 757.941Z" fill="black"/>
<path d="M956.026 722.233L956.289 710.552C956.317 709.171 955.224 708.023 953.84 707.995C953.779 707.992 953.717 707.995 953.657 707.998C952.36 708.063 951.311 709.12 951.282 710.444L951.019 722.119C950.991 723.503 952.084 724.648 953.468 724.676C954.861 724.707 955.991 723.615 956.026 722.233Z" fill="black"/>
<path d="M956.781 700.328L957.044 688.647C957.072 687.266 955.979 686.118 954.595 686.09C954.535 686.087 954.472 686.09 954.412 686.093C953.116 686.158 952.066 687.215 952.038 688.539L951.774 700.214C951.746 701.598 952.839 702.743 954.223 702.771C955.616 702.802 956.747 701.709 956.781 700.328Z" fill="black"/>
<path d="M955.382 652.695L955.423 641.011C955.425 639.63 954.31 638.503 952.926 638.501C952.866 638.499 952.803 638.503 952.743 638.507C951.448 638.597 950.419 639.673 950.416 640.998L950.374 652.676C950.372 654.06 951.486 655.184 952.871 655.186C954.264 655.191 955.374 654.077 955.382 652.695Z" fill="black"/>
<path d="M956.523 629.262L956.84 617.583C956.874 616.202 955.786 615.049 954.402 615.014C954.342 615.011 954.279 615.014 954.219 615.017C952.923 615.075 951.868 616.127 951.834 617.451L951.517 629.125C951.483 630.509 952.571 631.659 953.955 631.694C955.347 631.731 956.483 630.644 956.523 629.262Z" fill="black"/>
<path d="M836.116 755.333C837.637 755.225 839.206 755.173 840.913 755.173C842.866 755.173 845.007 755.245 847.463 755.391C848.844 755.473 850.028 754.418 850.108 753.04C850.111 752.992 850.117 752.94 850.117 752.886C850.117 751.574 849.087 750.473 847.761 750.39C845.208 750.241 842.966 750.167 840.913 750.167C839.086 750.167 837.4 750.221 835.759 750.342C834.383 750.439 833.331 751.625 833.44 753.018C833.54 754.393 834.738 755.433 836.116 755.333Z" fill="black"/>
<path d="M950.151 732.893C949.688 736.235 948.364 739.469 946.217 742.499C945.42 743.631 945.685 745.192 946.815 745.99C947.941 746.788 949.502 746.522 950.3 745.393C952.919 741.699 954.537 737.725 955.112 733.582C955.129 733.465 955.134 733.35 955.134 733.236C955.134 732.004 954.228 730.932 952.973 730.76C951.604 730.566 950.34 731.526 950.151 732.893Z" fill="black"/>
<path d="M871.093 752.106L859.443 751.262C858.062 751.162 856.867 752.2 856.764 753.578C856.664 754.967 857.705 756.157 859.083 756.254L870.73 757.097C872.111 757.197 873.309 756.16 873.412 754.782C873.415 754.719 873.418 754.662 873.418 754.599C873.418 753.298 872.411 752.2 871.093 752.106Z" fill="black"/>
<path d="M920.037 757.641C920.028 756.257 918.896 755.148 917.515 755.156L916.926 755.159C913.181 755.159 909.35 754.896 906.053 754.647C904.675 754.544 903.472 755.576 903.369 756.954C903.263 758.33 904.301 759.536 905.679 759.642C909.067 759.896 913.009 760.165 916.926 760.165L917.552 760.162C918.928 760.154 920.037 759.036 920.037 757.661C920.037 757.652 920.037 757.646 920.037 757.641Z" fill="black"/>
<path d="M805.365 769.182C803.561 772.782 802.271 776.739 801.534 780.942C801.293 782.291 802.205 783.601 803.563 783.838C804.927 784.078 806.225 783.169 806.465 781.808C807.117 778.085 808.255 774.592 809.842 771.424C810.022 771.067 810.105 770.683 810.105 770.306C810.105 769.385 809.602 768.502 808.724 768.067C807.489 767.447 805.985 767.947 805.365 769.182Z" fill="black"/>
<path d="M825.338 757.435C826.367 757.072 827.013 756.105 827.013 755.07C827.013 754.799 826.967 754.519 826.87 754.244C826.413 752.94 824.986 752.251 823.682 752.709C822.891 752.986 822.104 753.292 821.341 753.621C818.225 754.962 815.366 756.817 812.838 759.136C811.82 760.071 811.752 761.655 812.687 762.673C813.622 763.693 815.203 763.762 816.223 762.827C818.336 760.886 820.723 759.339 823.319 758.221C823.977 757.935 824.657 757.672 825.338 757.435Z" fill="black"/>
<path d="M936.413 751.088C934.026 752.383 931.462 753.335 928.568 754.001C927.219 754.316 926.375 755.654 926.69 757.003C927.001 758.352 928.345 759.19 929.692 758.881C932.985 758.118 936.047 756.98 938.795 755.496C939.615 755.047 940.427 754.567 941.214 754.055C941.951 753.575 942.352 752.774 942.352 751.954C942.352 751.485 942.22 751.013 941.946 750.593C941.191 749.432 939.638 749.104 938.483 749.858C937.811 750.296 937.117 750.71 936.413 751.088Z" fill="black"/>
<path d="M887.713 576.826C887.833 578.204 889.045 579.225 890.426 579.107C894.709 578.736 898.494 578.45 902.008 578.23C903.337 578.15 904.358 577.049 904.358 575.737C904.358 575.682 904.358 575.634 904.355 575.576C904.272 574.198 903.08 573.149 901.702 573.235C898.145 573.452 894.317 573.744 889.991 574.118C888.616 574.238 887.59 575.431 887.713 576.826Z" fill="black"/>
<path d="M855.52 582.286C856.824 582.175 857.81 581.08 857.81 579.793C857.81 579.725 857.808 579.653 857.802 579.576C857.685 578.201 856.472 577.177 855.097 577.295L853.748 577.412C850.386 577.701 846.915 577.995 843.558 578.129C842.174 578.181 841.097 579.37 841.157 580.728C841.211 582.109 842.375 583.184 843.753 583.13C847.226 582.993 850.757 582.692 854.174 582.401L855.52 582.286Z" fill="black"/>
<path d="M834.481 580.548C834.492 580.437 834.501 580.331 834.501 580.219C834.501 578.981 833.583 577.904 832.325 577.738C828.92 577.289 825.855 576.506 822.999 575.362C822.61 575.199 822.227 575.03 821.853 574.85C820.603 574.261 819.111 574.796 818.522 576.042C817.933 577.289 818.462 578.784 819.711 579.379C820.149 579.585 820.595 579.782 821.098 579.994C824.386 581.312 827.845 582.198 831.668 582.704C833.04 582.884 834.298 581.921 834.481 580.548Z" fill="black"/>
<path d="M881.065 577.452C880.934 576.08 879.71 575.073 878.332 575.202L875.344 575.496C872.465 575.779 869.589 576.06 866.716 576.331C865.338 576.457 864.323 577.672 864.457 579.056C864.583 580.431 865.807 581.446 867.182 581.314C870.064 581.043 872.949 580.76 875.828 580.48L878.818 580.191C880.11 580.062 881.08 578.973 881.08 577.701C881.08 577.618 881.077 577.538 881.065 577.452Z" fill="black"/>
<path d="M950.574 596.11C951.866 599.198 952.592 602.731 952.732 606.614C952.781 607.992 953.942 609.075 955.323 609.024C956.672 608.973 957.736 607.866 957.736 606.522C957.736 606.494 957.736 606.465 957.736 606.431C957.573 601.951 956.718 597.825 955.197 594.18C954.662 592.905 953.196 592.302 951.92 592.833C950.642 593.368 950.045 594.835 950.574 596.11Z" fill="black"/>
<path d="M933.983 578.501C933.412 579.762 933.972 581.246 935.233 581.818C938.684 583.382 941.783 585.349 944.445 587.667C945.482 588.576 947.066 588.468 947.973 587.427C948.387 586.95 948.59 586.364 948.59 585.783C948.59 585.083 948.298 584.388 947.732 583.893C944.708 581.254 941.197 579.022 937.297 577.258C936.039 576.686 934.555 577.243 933.983 578.501Z" fill="black"/>
<path d="M803.183 561.118C804.782 565.204 806.949 568.801 809.63 571.825C810.545 572.86 812.129 572.955 813.164 572.034C813.722 571.542 814.005 570.856 814.005 570.164C814.005 569.57 813.799 568.978 813.376 568.5C811.089 565.924 809.227 562.828 807.846 559.297C807.343 558.011 805.891 557.373 804.604 557.876C803.318 558.382 802.68 559.832 803.183 561.118Z" fill="black"/>
<path d="M911.025 575.225C911.025 575.245 911.025 575.265 911.025 575.285C911.054 576.666 912.2 577.761 913.584 577.729C915.32 577.692 917.044 577.669 918.71 577.669C920.732 577.844 922.736 578.121 924.666 578.498C926.024 578.761 927.339 577.875 927.602 576.52C927.633 576.357 927.648 576.197 927.648 576.037C927.648 574.865 926.819 573.818 925.624 573.584C923.482 573.166 921.264 572.86 919.028 572.675C918.959 572.666 918.888 572.663 918.819 572.663C917.081 572.663 915.282 572.683 913.47 572.726C912.106 572.755 911.025 573.87 911.025 575.225Z" fill="black"/>
<path d="M803.02 534.721C801.642 534.587 800.418 535.59 800.281 536.965C799.875 541.091 799.887 545.234 800.318 549.151C800.467 550.526 801.705 551.518 803.077 551.366C804.358 551.223 805.307 550.14 805.307 548.879C805.307 548.787 805.304 548.696 805.293 548.602C804.901 545.031 804.89 541.237 805.262 537.46C805.402 536.088 804.395 534.858 803.02 534.721Z" fill="black"/>
</g>
<g opacity="0.2">
<path d="M1017.04 1167.33L1028.72 1167.27C1030.11 1167.26 1031.22 1166.13 1031.21 1164.75C1031.21 1164.69 1031.21 1164.62 1031.21 1164.56C1031.1 1163.27 1030.02 1162.25 1028.69 1162.26L1017.02 1162.32C1015.63 1162.33 1014.52 1163.45 1014.53 1164.84C1014.54 1166.23 1015.66 1167.33 1017.04 1167.33Z" fill="black"/>
<path d="M581.194 1167.37L592.878 1167.31C594.259 1167.3 595.376 1166.18 595.366 1164.79C595.368 1164.73 595.363 1164.67 595.358 1164.61C595.258 1163.32 594.172 1162.3 592.848 1162.31L581.17 1162.37C579.786 1162.38 578.671 1163.5 578.681 1164.88C578.689 1166.28 579.812 1167.38 581.194 1167.37Z" fill="black"/>
<path d="M925.11 1167.18L936.794 1167.12C938.175 1167.11 939.292 1165.99 939.283 1164.6C939.284 1164.54 939.279 1164.48 939.274 1164.42C939.174 1163.12 938.088 1162.11 936.764 1162.11L925.086 1162.17C923.702 1162.18 922.587 1163.31 922.597 1164.69C922.605 1166.08 923.728 1167.18 925.11 1167.18Z" fill="black"/>
<path d="M487.717 1167.86L499.4 1167.79C500.782 1167.79 501.899 1166.66 501.889 1165.28C501.89 1165.22 501.885 1165.15 501.881 1165.09C501.78 1163.8 500.694 1162.78 499.37 1162.79L487.692 1162.85C486.308 1162.86 485.194 1163.98 485.204 1165.37C485.211 1166.76 486.335 1167.86 487.717 1167.86Z" fill="black"/>
<path d="M835.934 1166.91L847.618 1166.85C848.999 1166.84 850.117 1165.72 850.107 1164.33C850.108 1164.27 850.103 1164.21 850.098 1164.15C849.998 1162.86 848.912 1161.84 847.588 1161.85L835.91 1161.91C834.526 1161.92 833.411 1163.04 833.421 1164.42C833.429 1165.82 834.552 1166.92 835.934 1166.91Z" fill="black"/>
<path d="M396.352 1167.13L408.036 1167.07C409.417 1167.06 410.535 1165.93 410.525 1164.55C410.526 1164.49 410.521 1164.43 410.516 1164.37C410.416 1163.07 409.33 1162.05 408.006 1162.06L396.328 1162.12C394.944 1162.13 393.829 1163.25 393.839 1164.64C393.847 1166.03 394.97 1167.13 396.352 1167.13Z" fill="black"/>
<path d="M741.554 1166.96L753.238 1166.9C754.62 1166.89 755.737 1165.77 755.727 1164.38C755.728 1164.32 755.723 1164.26 755.718 1164.2C755.618 1162.91 754.532 1161.89 753.208 1161.89L741.53 1161.95C740.146 1161.96 739.032 1163.09 739.041 1164.47C739.049 1165.87 740.173 1166.97 741.554 1166.96Z" fill="black"/>
<path d="M303.4 1166.89L315.084 1166.83C316.465 1166.82 317.582 1165.69 317.573 1164.31C317.574 1164.25 317.569 1164.18 317.564 1164.12C317.464 1162.83 316.378 1161.81 315.054 1161.82L303.376 1161.88C301.992 1161.89 300.877 1163.01 300.887 1164.4C300.895 1165.79 302.018 1166.89 303.4 1166.89Z" fill="black"/>
<path d="M211.131 1167.54L222.814 1167.48C224.196 1167.47 225.313 1166.34 225.303 1164.96C225.304 1164.9 225.299 1164.83 225.295 1164.77C225.194 1163.48 224.109 1162.46 222.784 1162.47L211.106 1162.53C209.722 1162.54 208.608 1163.66 208.618 1165.05C208.625 1166.44 209.749 1167.54 211.131 1167.54Z" fill="black"/>
<path d="M49.8069 1168.32L61.4906 1168.26C62.872 1168.25 63.9892 1167.13 63.9793 1165.74C63.9803 1165.68 63.9755 1165.62 63.9708 1165.56C63.8705 1164.27 62.7848 1163.25 61.4606 1163.25L49.7826 1163.31C48.3983 1163.32 47.284 1164.45 47.2939 1165.83C47.3016 1167.23 48.425 1168.33 49.8069 1168.32Z" fill="black"/>
<path d="M648.644 1166.86L660.328 1166.8C661.709 1166.79 662.826 1165.67 662.816 1164.28C662.817 1164.22 662.812 1164.16 662.808 1164.1C662.707 1162.81 661.622 1161.79 660.298 1161.79L648.62 1161.85C647.235 1161.86 646.121 1162.99 646.131 1164.37C646.139 1165.77 647.262 1166.87 648.644 1166.86Z" fill="black"/>
<path d="M1091 1124.96L1091.31 1113.28C1091.35 1111.9 1090.26 1110.75 1088.87 1110.71C1088.81 1110.71 1088.75 1110.71 1088.69 1110.71C1087.39 1110.77 1086.34 1111.83 1086.31 1113.15L1085.99 1124.82C1085.95 1126.21 1087.04 1127.36 1088.43 1127.39C1089.82 1127.43 1090.96 1126.34 1091 1124.96Z" fill="black"/>
<path d="M1091.92 1102.93L1092.24 1091.25C1092.28 1089.87 1091.19 1088.71 1089.8 1088.68C1089.74 1088.68 1089.68 1088.68 1089.62 1088.68C1088.32 1088.74 1087.27 1089.79 1087.23 1091.12L1086.92 1102.79C1086.88 1104.17 1087.97 1105.32 1089.36 1105.36C1090.75 1105.4 1091.88 1104.31 1091.92 1102.93Z" fill="black"/>
<path d="M1092.68 1078L1093 1066.32C1093.03 1064.94 1091.94 1063.79 1090.56 1063.75C1090.5 1063.75 1090.44 1063.75 1090.38 1063.76C1089.08 1063.81 1088.02 1064.87 1087.99 1066.19L1087.67 1077.86C1087.64 1079.25 1088.73 1080.4 1090.11 1080.43C1091.5 1080.47 1092.64 1079.38 1092.68 1078Z" fill="black"/>
<path d="M1093.44 1056.1L1093.75 1044.42C1093.79 1043.04 1092.7 1041.88 1091.31 1041.85C1091.25 1041.85 1091.19 1041.85 1091.13 1041.85C1089.83 1041.91 1088.78 1042.96 1088.75 1044.29L1088.43 1055.96C1088.39 1057.34 1089.48 1058.49 1090.87 1058.53C1092.26 1058.56 1093.39 1057.48 1093.44 1056.1Z" fill="black"/>
<path d="M1084.63 1138.31C1084.17 1141.66 1082.84 1144.89 1080.7 1147.92C1079.9 1149.05 1080.17 1150.61 1081.3 1151.41C1082.42 1152.21 1083.98 1151.94 1084.78 1150.81C1087.4 1147.12 1089.02 1143.15 1089.59 1139C1089.61 1138.89 1089.61 1138.77 1089.61 1138.66C1089.61 1137.42 1088.71 1136.35 1087.45 1136.18C1086.08 1135.99 1084.82 1136.95 1084.63 1138.31Z" fill="black"/>
<path d="M1054.53 1165.52C1054.52 1164.14 1053.38 1163.04 1052 1163.06L1051.41 1163.06C1047.66 1163.09 1043.83 1162.85 1040.53 1162.63C1039.15 1162.54 1037.95 1163.58 1037.86 1164.96C1037.77 1166.33 1038.81 1167.53 1040.19 1167.63C1043.58 1167.86 1047.52 1168.1 1051.44 1168.07L1052.07 1168.06C1053.44 1168.05 1054.54 1166.92 1054.53 1165.54C1054.53 1165.54 1054.53 1165.53 1054.53 1165.52Z" fill="black"/>
<path d="M962.603 1165.38C962.585 1164 961.445 1162.89 960.064 1162.91L959.475 1162.92C955.73 1162.95 951.897 1162.71 948.599 1162.48C947.22 1162.39 946.024 1163.43 945.93 1164.81C945.834 1166.19 946.881 1167.39 948.259 1167.48C951.649 1167.71 955.593 1167.95 959.51 1167.93L960.136 1167.92C961.511 1167.9 962.613 1166.77 962.603 1165.4C962.603 1165.39 962.603 1165.38 962.603 1165.38Z" fill="black"/>
<path d="M869.692 1165.28C869.674 1163.89 868.534 1162.79 867.153 1162.81L866.564 1162.82C862.819 1162.84 858.986 1162.61 855.688 1162.38C854.309 1162.29 853.113 1163.33 853.02 1164.71C852.924 1166.09 853.97 1167.28 855.349 1167.38C858.738 1167.61 862.683 1167.85 866.6 1167.82L867.226 1167.82C868.601 1167.8 869.702 1166.67 869.692 1165.3C869.692 1165.29 869.692 1165.28 869.692 1165.28Z" fill="black"/>
<path d="M433.846 1165.33C433.827 1163.94 432.687 1162.84 431.307 1162.86L430.718 1162.87C426.972 1162.89 423.14 1162.66 419.841 1162.43C418.463 1162.34 417.266 1163.38 417.173 1164.76C417.077 1166.13 418.123 1167.33 419.502 1167.43C422.892 1167.66 426.836 1167.9 430.753 1167.87L431.379 1167.86C432.754 1167.85 433.855 1166.72 433.846 1165.35C433.846 1165.34 433.846 1165.33 433.846 1165.33Z" fill="black"/>
<path d="M779.047 1165.16C779.028 1163.78 777.889 1162.68 776.508 1162.69L775.919 1162.7C772.174 1162.73 768.341 1162.49 765.043 1162.27C763.664 1162.17 762.468 1163.21 762.374 1164.59C762.278 1165.97 763.325 1167.17 764.703 1167.26C768.093 1167.49 772.037 1167.73 775.954 1167.71L776.58 1167.7C777.955 1167.68 779.057 1166.56 779.047 1165.18C779.047 1165.17 779.047 1165.17 779.047 1165.16Z" fill="black"/>
<path d="M686.137 1165.06C686.118 1163.68 684.978 1162.57 683.598 1162.59L683.009 1162.6C679.263 1162.63 675.431 1162.39 672.132 1162.16C670.754 1162.07 669.557 1163.11 669.464 1164.49C669.368 1165.87 670.414 1167.07 671.793 1167.16C675.183 1167.39 679.127 1167.63 683.044 1167.61L683.67 1167.6C685.045 1167.58 686.146 1166.45 686.137 1165.08C686.137 1165.07 686.137 1165.07 686.137 1165.06Z" fill="black"/>
<path d="M250.289 1165.11C250.271 1163.72 249.131 1162.62 247.75 1162.64L247.161 1162.65C243.416 1162.67 239.583 1162.44 236.285 1162.21C234.906 1162.12 233.71 1163.16 233.616 1164.54C233.52 1165.91 234.567 1167.11 235.945 1167.21C239.335 1167.44 243.279 1167.68 247.196 1167.65L247.822 1167.65C249.197 1167.63 250.299 1166.5 250.289 1165.13C250.289 1165.12 250.289 1165.11 250.289 1165.11Z" fill="black"/>
<path d="M88.9653 1165.89C88.947 1164.51 87.807 1163.41 86.4262 1163.43L85.8373 1163.43C82.092 1163.46 78.2592 1163.22 74.9611 1163C73.5823 1162.91 72.386 1163.95 72.2928 1165.32C72.1967 1166.7 73.243 1167.9 74.6217 1168C78.0114 1168.23 81.9558 1168.47 85.8725 1168.44L86.4986 1168.43C87.8737 1168.41 88.9751 1167.29 88.9654 1165.91C88.9654 1165.9 88.9653 1165.9 88.9653 1165.89Z" fill="black"/>
<path d="M158.02 1165.76C158.002 1164.37 156.862 1163.27 155.481 1163.29L154.892 1163.3C151.147 1163.32 147.314 1163.09 144.016 1162.86C142.637 1162.77 141.441 1163.81 141.347 1165.19C141.251 1166.56 142.298 1167.76 143.676 1167.86C147.066 1168.09 151.01 1168.33 154.927 1168.3L155.553 1168.3C156.928 1168.28 158.03 1167.15 158.02 1165.78C158.02 1165.77 158.02 1165.76 158.02 1165.76Z" fill="black"/>
<path d="M1008.62 1164.97C1008.57 1163.58 1007.41 1162.51 1006.03 1162.56L1005.44 1162.58C1001.7 1162.69 997.859 1162.54 994.557 1162.39C993.176 1162.33 992.004 1163.4 991.942 1164.78C991.877 1166.16 992.951 1167.33 994.331 1167.39C997.725 1167.55 1001.67 1167.7 1005.59 1167.58L1006.21 1167.56C1007.59 1167.51 1008.66 1166.36 1008.62 1164.99C1008.62 1164.98 1008.62 1164.97 1008.62 1164.97Z" fill="black"/>
<path d="M572.776 1165.01C572.726 1163.63 571.561 1162.56 570.181 1162.61L569.592 1162.63C565.849 1162.74 562.012 1162.59 558.709 1162.44C557.329 1162.38 556.156 1163.44 556.094 1164.83C556.03 1166.2 557.103 1167.38 558.484 1167.44C561.878 1167.6 565.826 1167.75 569.742 1167.63L570.367 1167.61C571.742 1167.56 572.817 1166.41 572.776 1165.03C572.776 1165.03 572.776 1165.02 572.776 1165.01Z" fill="black"/>
<path d="M916.692 1164.82C916.642 1163.44 915.478 1162.36 914.098 1162.41L913.509 1162.43C909.765 1162.55 905.928 1162.4 902.626 1162.25C901.245 1162.18 900.073 1163.25 900.011 1164.63C899.946 1166.01 901.019 1167.18 902.4 1167.25C905.794 1167.4 909.743 1167.55 913.658 1167.44L914.284 1167.42C915.658 1167.37 916.734 1166.22 916.693 1164.84C916.692 1164.83 916.692 1164.83 916.692 1164.82Z" fill="black"/>
<path d="M480.845 1164.87C480.796 1163.49 479.631 1162.41 478.251 1162.46L477.662 1162.48C473.919 1162.59 470.081 1162.44 466.779 1162.29C465.398 1162.23 464.226 1163.3 464.164 1164.68C464.099 1166.06 465.173 1167.23 466.553 1167.3C469.947 1167.45 473.896 1167.6 477.811 1167.49L478.437 1167.46C479.811 1167.41 480.887 1166.26 480.846 1164.89C480.846 1164.88 480.846 1164.87 480.845 1164.87Z" fill="black"/>
<path d="M387.934 1164.77C387.884 1163.39 386.72 1162.31 385.34 1162.36L384.751 1162.38C381.007 1162.49 377.17 1162.34 373.868 1162.19C372.487 1162.13 371.315 1163.2 371.253 1164.58C371.188 1165.96 372.262 1167.13 373.642 1167.2C377.036 1167.35 380.985 1167.5 384.9 1167.38L385.526 1167.36C386.9 1167.31 387.976 1166.16 387.935 1164.79C387.935 1164.78 387.934 1164.77 387.934 1164.77Z" fill="black"/>
<path d="M733.136 1164.6C733.087 1163.22 731.922 1162.15 730.542 1162.2L729.953 1162.22C726.21 1162.33 722.372 1162.18 719.07 1162.03C717.689 1161.97 716.517 1163.03 716.455 1164.41C716.391 1165.79 717.464 1166.97 718.844 1167.03C722.238 1167.18 726.187 1167.34 730.102 1167.22L730.728 1167.2C732.102 1167.15 733.178 1166 733.137 1164.62C733.137 1164.61 733.137 1164.61 733.136 1164.6Z" fill="black"/>
<path d="M297.289 1164.65C297.239 1163.27 296.075 1162.19 294.695 1162.24L294.106 1162.26C290.362 1162.37 286.525 1162.23 283.223 1162.08C281.842 1162.01 280.67 1163.08 280.608 1164.46C280.543 1165.84 281.617 1167.01 282.997 1167.08C286.391 1167.23 290.34 1167.38 294.255 1167.27L294.881 1167.25C296.255 1167.2 297.331 1166.05 297.29 1164.67C297.29 1164.66 297.289 1164.66 297.289 1164.65Z" fill="black"/>
<path d="M135.966 1165.44C135.916 1164.05 134.751 1162.98 133.371 1163.03L132.782 1163.05C129.039 1163.16 125.201 1163.01 121.899 1162.86C120.519 1162.8 119.346 1163.87 119.284 1165.25C119.22 1166.63 120.293 1167.8 121.674 1167.87C125.068 1168.02 129.016 1168.17 132.931 1168.05L133.557 1168.03C134.932 1167.98 136.007 1166.83 135.966 1165.46C135.966 1165.45 135.966 1165.44 135.966 1165.44Z" fill="black"/>
<path d="M205.02 1165.3C204.97 1163.92 203.806 1162.84 202.426 1162.89L201.837 1162.91C198.093 1163.02 194.256 1162.88 190.954 1162.73C189.573 1162.66 188.401 1163.73 188.339 1165.11C188.274 1166.49 189.348 1167.66 190.728 1167.73C194.122 1167.88 198.071 1168.03 201.986 1167.92L202.612 1167.9C203.986 1167.85 205.062 1166.7 205.021 1165.32C205.021 1165.31 205.02 1165.31 205.02 1165.3Z" fill="black"/>
<path d="M43.6965 1166.09C43.6467 1164.7 42.482 1163.63 41.1019 1163.68L40.5133 1163.7C36.7696 1163.81 32.9324 1163.66 29.63 1163.51C28.2495 1163.45 27.0772 1164.52 27.0153 1165.9C26.9506 1167.28 28.0239 1168.45 29.4045 1168.51C32.7985 1168.67 36.7473 1168.82 40.6625 1168.7L41.2882 1168.68C42.6625 1168.63 43.738 1167.48 43.6971 1166.11C43.6968 1166.1 43.6966 1166.09 43.6965 1166.09Z" fill="black"/>
<path d="M640.226 1164.5C640.176 1163.12 639.012 1162.04 637.632 1162.09L637.043 1162.11C633.299 1162.23 629.462 1162.08 626.16 1161.93C624.779 1161.86 623.607 1162.93 623.545 1164.31C623.48 1165.69 624.554 1166.87 625.934 1166.93C629.328 1167.08 633.277 1167.23 637.192 1167.12L637.818 1167.1C639.192 1167.05 640.268 1165.9 640.227 1164.52C640.227 1164.51 640.226 1164.51 640.226 1164.5Z" fill="black"/>
<path d="M1070.89 1156.14C1068.5 1157.44 1065.93 1158.39 1063.04 1159.06C1061.69 1159.37 1060.85 1160.71 1061.16 1162.06C1061.47 1163.41 1062.82 1164.25 1064.16 1163.94C1067.46 1163.17 1070.52 1162.04 1073.27 1160.55C1074.09 1160.1 1074.9 1159.62 1075.69 1159.11C1076.42 1158.63 1076.82 1157.83 1076.82 1157.01C1076.82 1156.54 1076.69 1156.07 1076.42 1155.65C1075.66 1154.49 1074.11 1154.16 1072.96 1154.91C1072.28 1155.35 1071.59 1155.77 1070.89 1156.14Z" fill="black"/>
<path d="M1022.18 1004.54C1022.3 1005.92 1023.52 1006.94 1024.9 1006.82C1029.18 1006.45 1032.97 1006.17 1036.48 1005.95C1037.81 1005.87 1038.83 1004.77 1038.83 1003.45C1038.83 1003.4 1038.83 1003.35 1038.83 1003.29C1038.74 1001.92 1037.55 1000.87 1036.17 1000.95C1032.62 1001.17 1028.79 1001.46 1024.46 1001.84C1023.09 1001.96 1022.06 1003.15 1022.18 1004.54Z" fill="black"/>
<path d="M968.452 1165.11C968.461 1166.5 969.587 1167.61 970.973 1167.61C975.271 1167.58 979.068 1167.6 982.588 1167.67C983.919 1167.69 985.025 1166.68 985.131 1165.37C985.135 1165.32 985.139 1165.27 985.141 1165.21C985.169 1163.83 984.066 1162.69 982.685 1162.66C979.123 1162.59 975.283 1162.57 970.942 1162.6C969.561 1162.61 968.442 1163.71 968.452 1165.11Z" fill="black"/>
<path d="M535.096 1165.11C535.105 1166.49 536.231 1167.61 537.617 1167.6C541.916 1167.57 545.712 1167.6 549.232 1167.66C550.563 1167.69 551.669 1166.67 551.775 1165.36C551.779 1165.31 551.783 1165.26 551.785 1165.2C551.813 1163.82 550.71 1162.68 549.329 1162.66C545.767 1162.59 541.927 1162.57 537.586 1162.59C536.205 1162.6 535.086 1163.71 535.096 1165.11Z" fill="black"/>
<path d="M876.522 1164.97C876.531 1166.35 877.657 1167.47 879.042 1167.46C883.341 1167.44 887.137 1167.46 890.657 1167.52C891.989 1167.55 893.095 1166.53 893.201 1165.22C893.205 1165.17 893.209 1165.12 893.211 1165.07C893.239 1163.68 892.135 1162.54 890.755 1162.52C887.192 1162.45 883.353 1162.43 879.011 1162.45C877.631 1162.46 876.512 1163.57 876.522 1164.97Z" fill="black"/>
<path d="M440.675 1165.02C440.683 1166.4 441.809 1167.52 443.195 1167.51C447.494 1167.48 451.29 1167.5 454.81 1167.57C456.142 1167.6 457.248 1166.58 457.354 1165.27C457.358 1165.22 457.362 1165.17 457.364 1165.11C457.392 1163.73 456.288 1162.59 454.908 1162.57C451.345 1162.5 447.506 1162.48 443.164 1162.5C441.784 1162.51 440.665 1163.62 440.675 1165.02Z" fill="black"/>
<path d="M783.612 1164.87C783.62 1166.25 784.746 1167.37 786.132 1167.36C790.431 1167.34 794.227 1167.36 797.747 1167.42C799.079 1167.45 800.185 1166.43 800.291 1165.12C800.295 1165.07 800.299 1165.02 800.301 1164.96C800.329 1163.58 799.225 1162.44 797.845 1162.42C794.282 1162.35 790.443 1162.33 786.101 1162.35C784.721 1162.36 783.602 1163.47 783.612 1164.87Z" fill="black"/>
<path d="M350.03 1164.9C350.038 1166.28 351.164 1167.4 352.55 1167.39C356.849 1167.37 360.645 1167.39 364.165 1167.45C365.497 1167.48 366.603 1166.46 366.709 1165.16C366.713 1165.1 366.717 1165.05 366.719 1165C366.747 1163.62 365.643 1162.47 364.263 1162.45C360.7 1162.38 356.861 1162.36 352.519 1162.39C351.139 1162.39 350.02 1163.5 350.03 1164.9Z" fill="black"/>
<path d="M692.966 1164.75C692.975 1166.13 694.101 1167.25 695.487 1167.24C699.786 1167.22 703.582 1167.24 707.102 1167.3C708.433 1167.33 709.539 1166.31 709.645 1165.01C709.65 1164.95 709.653 1164.9 709.655 1164.85C709.684 1163.47 708.58 1162.32 707.199 1162.3C703.637 1162.23 699.798 1162.21 695.456 1162.24C694.075 1162.25 692.956 1163.35 692.966 1164.75Z" fill="black"/>
<path d="M257.119 1164.8C257.128 1166.18 258.254 1167.3 259.64 1167.29C263.938 1167.27 267.735 1167.29 271.255 1167.35C272.586 1167.38 273.692 1166.36 273.798 1165.05C273.802 1165 273.806 1164.95 273.808 1164.89C273.836 1163.51 272.733 1162.37 271.352 1162.35C267.79 1162.28 263.95 1162.26 259.609 1162.28C258.228 1162.29 257.109 1163.4 257.119 1164.8Z" fill="black"/>
<path d="M95.7954 1165.58C95.804 1166.97 96.93 1168.08 98.3159 1168.08C102.615 1168.05 106.411 1168.07 109.931 1168.14C111.262 1168.16 112.368 1167.15 112.474 1165.84C112.479 1165.79 112.483 1165.74 112.484 1165.68C112.513 1164.3 111.409 1163.16 110.028 1163.13C106.466 1163.06 102.627 1163.05 98.2848 1163.07C96.9044 1163.08 95.7853 1164.18 95.7954 1165.58Z" fill="black"/>
<path d="M164.85 1165.45C164.858 1166.83 165.984 1167.95 167.37 1167.94C171.669 1167.92 175.465 1167.94 178.985 1168C180.317 1168.03 181.423 1167.01 181.528 1165.7C181.533 1165.65 181.537 1165.6 181.538 1165.54C181.567 1164.16 180.463 1163.02 179.083 1163C175.52 1162.93 171.681 1162.91 167.339 1162.93C165.959 1162.94 164.839 1164.05 164.85 1165.45Z" fill="black"/>
<path d="M3.52584 1166.23C3.53447 1167.62 4.6605 1168.73 6.04636 1168.73C10.3452 1168.7 14.1413 1168.72 17.6613 1168.79C18.9929 1168.81 20.0989 1167.8 20.2047 1166.49C20.2091 1166.44 20.213 1166.39 20.2148 1166.33C20.2432 1164.95 19.1394 1163.81 17.7589 1163.78C14.1964 1163.71 10.3571 1163.69 6.01526 1163.72C4.63487 1163.73 3.51574 1164.83 3.52584 1166.23Z" fill="black"/>
<path d="M600.056 1164.65C600.064 1166.03 601.19 1167.15 602.576 1167.14C606.875 1167.12 610.671 1167.14 614.191 1167.2C615.523 1167.23 616.629 1166.21 616.734 1164.91C616.739 1164.85 616.743 1164.8 616.745 1164.75C616.773 1163.37 615.669 1162.22 614.289 1162.2C610.726 1162.13 606.887 1162.11 602.545 1162.13C601.165 1162.14 600.046 1163.25 600.056 1164.65Z" fill="black"/>
<path d="M989.992 1010C991.296 1009.89 992.282 1008.8 992.282 1007.51C992.282 1007.44 992.279 1007.37 992.274 1007.29C992.156 1005.92 990.944 1004.89 989.569 1005.01L988.219 1005.13C984.857 1005.42 981.386 1005.71 978.03 1005.85C976.646 1005.9 975.568 1007.09 975.628 1008.45C975.683 1009.83 976.846 1010.9 978.224 1010.85C981.698 1010.71 985.229 1010.41 988.645 1010.12L989.992 1010Z" fill="black"/>
<path d="M1015.54 1005.17C1015.41 1003.8 1014.18 1002.79 1012.8 1002.92L1009.82 1003.21C1006.94 1003.5 1004.06 1003.78 1001.19 1004.05C999.81 1004.17 998.796 1005.39 998.93 1006.77C999.056 1008.15 1000.28 1009.16 1001.65 1009.03C1004.54 1008.76 1007.42 1008.48 1010.3 1008.2L1013.29 1007.91C1014.58 1007.78 1015.55 1006.69 1015.55 1005.42C1015.55 1005.33 1015.55 1005.25 1015.54 1005.17Z" fill="black"/>
<path d="M1085.05 1023.83C1086.34 1026.91 1087.06 1030.45 1087.21 1034.33C1087.25 1035.71 1088.41 1036.79 1089.8 1036.74C1091.14 1036.69 1092.21 1035.58 1092.21 1034.24C1092.21 1034.21 1092.21 1034.18 1092.21 1034.15C1092.05 1029.67 1091.19 1025.54 1089.67 1021.9C1089.13 1020.62 1087.67 1020.02 1086.39 1020.55C1085.12 1021.08 1084.52 1022.55 1085.05 1023.83Z" fill="black"/>
<path d="M1068.46 1006.22C1067.88 1007.48 1068.44 1008.96 1069.7 1009.53C1073.16 1011.1 1076.25 1013.07 1078.92 1015.38C1079.95 1016.29 1081.54 1016.18 1082.44 1015.14C1082.86 1014.67 1083.06 1014.08 1083.06 1013.5C1083.06 1012.8 1082.77 1012.1 1082.2 1011.61C1079.18 1008.97 1075.67 1006.74 1071.77 1004.97C1070.51 1004.4 1069.03 1004.96 1068.46 1006.22Z" fill="black"/>
<path d="M1045.5 1002.94C1045.5 1002.96 1045.5 1002.98 1045.5 1003C1045.53 1004.38 1046.67 1005.48 1048.06 1005.45C1049.79 1005.41 1051.52 1005.39 1053.18 1005.39C1055.2 1005.56 1057.21 1005.84 1059.14 1006.22C1060.5 1006.48 1061.81 1005.59 1062.07 1004.24C1062.11 1004.07 1062.12 1003.91 1062.12 1003.75C1062.12 1002.58 1061.29 1001.53 1060.1 1001.3C1057.95 1000.88 1055.74 1000.58 1053.5 1000.39C1053.43 1000.38 1053.36 1000.38 1053.29 1000.38C1051.55 1000.38 1049.75 1000.4 1047.94 1000.44C1046.58 1000.47 1045.5 1001.59 1045.5 1002.94Z" fill="black"/>
</g>
<g opacity="0.2">
<mask id="mask3_130_14" style="mask-type:luminance" maskUnits="userSpaceOnUse" x="642" y="400" width="25" height="24">
<path d="M666.355 400.266H642.891V423.687H666.355V400.266Z" fill="white"/>
</mask>
<g mask="url(#mask3_130_14)">
<path d="M648.804 411.828C648.804 414.927 651.314 417.437 654.41 417.437C657.506 417.437 660.017 414.927 660.017 411.828C660.017 408.732 657.506 406.221 654.41 406.221C651.314 406.221 648.804 408.732 648.804 411.828ZM665.923 411.828C665.923 418.189 660.769 423.347 654.41 423.347C648.046 423.347 642.891 418.189 642.891 411.828C642.891 405.467 648.046 400.312 654.41 400.312C660.769 400.312 665.923 405.467 665.923 411.828Z" fill="black"/>
</g>
<path d="M724.071 499.802L712.417 500.645C711.039 500.742 709.838 499.707 709.741 498.326C709.735 498.266 709.735 498.203 709.735 498.143C709.735 496.845 710.739 495.745 712.06 495.65L723.707 494.807C725.088 494.71 726.286 495.745 726.383 497.126C726.484 498.515 725.449 499.699 724.071 499.802Z" fill="black"/>
<path d="M650.429 464.094L650.166 452.413C650.137 451.032 651.23 449.884 652.614 449.855C652.675 449.853 652.738 449.856 652.797 449.859C654.094 449.923 655.143 450.98 655.172 452.304L655.435 463.979C655.464 465.363 654.37 466.508 652.986 466.537C651.594 466.568 650.463 465.475 650.429 464.094Z" fill="black"/>
<path d="M649.673 442.189L649.41 430.508C649.382 429.127 650.475 427.979 651.859 427.95C651.919 427.948 651.982 427.951 652.042 427.954C653.339 428.018 654.388 429.075 654.417 430.399L654.68 442.074C654.708 443.458 653.615 444.603 652.231 444.632C650.838 444.663 649.707 443.57 649.673 442.189Z" fill="black"/>
<path d="M651.072 394.555L651.031 382.872C651.028 381.49 652.143 380.363 653.528 380.361C653.588 380.36 653.651 380.364 653.711 380.368C655.005 380.457 656.035 381.534 656.038 382.858L656.08 394.536C656.082 395.921 654.967 397.045 653.583 397.047C652.19 397.051 651.08 395.937 651.072 394.555Z" fill="black"/>
<path d="M649.931 371.123L649.615 359.443C649.58 358.062 650.668 356.909 652.052 356.875C652.112 356.872 652.175 356.875 652.235 356.877C653.531 356.936 654.586 357.988 654.62 359.312L654.937 370.986C654.971 372.37 653.883 373.52 652.499 373.554C651.107 373.592 649.971 372.504 649.931 371.123Z" fill="black"/>
<path d="M770.338 497.194C768.817 497.085 767.247 497.034 765.54 497.034C763.588 497.034 761.446 497.105 758.99 497.251C757.609 497.334 756.426 496.279 756.346 494.901C756.343 494.852 756.337 494.801 756.337 494.747C756.337 493.434 757.366 492.334 758.693 492.251C761.246 492.102 763.488 492.028 765.54 492.028C767.367 492.028 769.054 492.082 770.695 492.202C772.07 492.299 773.122 493.486 773.014 494.878C772.914 496.253 771.716 497.294 770.338 497.194Z" fill="black"/>
<path d="M656.303 474.754C656.766 478.096 658.09 481.329 660.237 484.36C661.035 485.492 660.769 487.053 659.639 487.851C658.513 488.648 656.952 488.383 656.154 487.253C653.535 483.559 651.917 479.585 651.343 475.443C651.325 475.325 651.32 475.211 651.32 475.097C651.32 473.864 652.226 472.792 653.481 472.621C654.851 472.426 656.114 473.387 656.303 474.754Z" fill="black"/>
<path d="M735.361 493.966L747.011 493.123C748.392 493.023 749.587 494.061 749.69 495.439C749.79 496.828 748.75 498.017 747.371 498.115L735.724 498.958C734.343 499.058 733.145 498.02 733.042 496.642C733.039 496.579 733.036 496.522 733.036 496.459C733.036 495.158 734.043 494.061 735.361 493.966Z" fill="black"/>
<path d="M686.417 499.501C686.426 498.117 687.558 497.008 688.939 497.017L689.528 497.02C693.273 497.02 697.104 496.757 700.401 496.508C701.779 496.405 702.982 497.437 703.085 498.815C703.191 500.19 702.153 501.397 700.775 501.503C697.387 501.757 693.445 502.026 689.528 502.026L688.902 502.023C687.527 502.014 686.417 500.896 686.417 499.521C686.417 499.513 686.417 499.507 686.417 499.501Z" fill="black"/>
<path d="M801.09 511.043C802.894 514.643 804.183 518.599 804.921 522.802C805.161 524.152 804.249 525.461 802.891 525.698C801.527 525.939 800.229 525.029 799.989 523.668C799.337 519.946 798.2 516.452 796.613 513.285C796.433 512.927 796.35 512.544 796.35 512.167C796.35 511.246 796.853 510.363 797.731 509.928C798.966 509.308 800.47 509.808 801.09 511.043Z" fill="black"/>
<path d="M781.117 499.295C780.088 498.932 779.441 497.966 779.441 496.931C779.441 496.659 779.487 496.379 779.584 496.105C780.042 494.801 781.468 494.112 782.772 494.569C783.564 494.847 784.35 495.153 785.114 495.481C788.23 496.822 791.089 498.678 793.616 500.996C794.634 501.931 794.703 503.515 793.768 504.533C792.833 505.554 791.252 505.622 790.231 504.687C788.119 502.746 785.731 501.199 783.135 500.082C782.478 499.796 781.797 499.533 781.117 499.295Z" fill="black"/>
<path d="M670.041 492.948C672.428 494.243 674.993 495.196 677.886 495.862C679.235 496.176 680.079 497.514 679.764 498.864C679.453 500.213 678.109 501.051 676.762 500.742C673.469 499.979 670.407 498.841 667.659 497.357C666.839 496.908 666.027 496.428 665.24 495.916C664.503 495.436 664.103 494.635 664.103 493.815C664.103 493.346 664.234 492.874 664.509 492.454C665.263 491.293 666.816 490.964 667.971 491.719C668.643 492.156 669.337 492.571 670.041 492.948Z" fill="black"/>
<path d="M718.741 318.686C718.621 320.065 717.409 321.085 716.028 320.968C711.745 320.596 707.96 320.31 704.446 320.09C703.117 320.01 702.096 318.909 702.096 317.597C702.096 317.543 702.096 317.494 702.099 317.437C702.182 316.059 703.374 315.01 704.752 315.096C708.309 315.313 712.137 315.604 716.463 315.979C717.838 316.099 718.864 317.291 718.741 318.686Z" fill="black"/>
<path d="M750.934 324.147C749.63 324.036 748.644 322.941 748.644 321.654C748.644 321.585 748.646 321.514 748.652 321.437C748.769 320.062 749.982 319.038 751.357 319.155L752.706 319.273C756.068 319.561 759.539 319.856 762.896 319.99C764.28 320.042 765.357 321.231 765.297 322.589C765.243 323.97 764.079 325.045 762.701 324.991C759.228 324.853 755.697 324.553 752.28 324.262L750.934 324.147Z" fill="black"/>
<path d="M771.973 322.409C771.962 322.297 771.953 322.192 771.953 322.08C771.953 320.842 772.871 319.764 774.129 319.599C777.534 319.15 780.599 318.366 783.455 317.223C783.844 317.06 784.227 316.891 784.602 316.711C785.851 316.122 787.343 316.657 787.932 317.903C788.521 319.15 787.992 320.645 786.743 321.24C786.306 321.445 785.86 321.643 785.356 321.854C782.068 323.172 778.609 324.059 774.787 324.565C773.414 324.745 772.156 323.781 771.973 322.409Z" fill="black"/>
<path d="M725.389 319.313C725.52 317.94 726.744 316.934 728.122 317.062L731.11 317.357C733.989 317.64 736.865 317.92 739.738 318.192C741.116 318.318 742.131 319.533 741.997 320.916C741.871 322.292 740.647 323.307 739.272 323.175C736.39 322.903 733.506 322.62 730.627 322.34L727.636 322.051C726.344 321.923 725.374 320.834 725.374 319.561C725.374 319.478 725.377 319.398 725.389 319.313Z" fill="black"/>
<path d="M655.88 337.971C654.588 341.058 653.862 344.592 653.722 348.475C653.673 349.853 652.512 350.936 651.131 350.885C649.782 350.833 648.718 349.727 648.718 348.383C648.718 348.354 648.718 348.326 648.718 348.292C648.881 343.811 649.736 339.686 651.257 336.041C651.792 334.766 653.259 334.162 654.534 334.694C655.812 335.229 656.409 336.695 655.88 337.971Z" fill="black"/>
<path d="M672.471 320.362C673.043 321.623 672.482 323.107 671.221 323.678C667.77 325.242 664.671 327.209 662.01 329.528C660.972 330.437 659.388 330.328 658.482 329.288C658.067 328.81 657.864 328.224 657.864 327.644C657.864 326.943 658.156 326.249 658.722 325.754C661.747 323.115 665.257 320.882 669.157 319.118C670.415 318.546 671.899 319.104 672.471 320.362Z" fill="black"/>
<path d="M803.271 302.979C801.673 307.064 799.505 310.661 796.824 313.686C795.909 314.721 794.325 314.815 793.29 313.895C792.732 313.403 792.449 312.717 792.449 312.025C792.449 311.43 792.655 310.838 793.078 310.361C795.366 307.785 797.227 304.689 798.608 301.158C799.111 299.871 800.563 299.234 801.85 299.737C803.136 300.243 803.774 301.692 803.271 302.979Z" fill="black"/>
<path d="M695.429 317.085C695.429 317.105 695.429 317.125 695.429 317.145C695.4 318.526 694.254 319.621 692.87 319.59C691.134 319.553 689.41 319.53 687.744 319.53C685.722 319.704 683.718 319.982 681.788 320.359C680.43 320.622 679.115 319.736 678.852 318.381C678.821 318.218 678.806 318.057 678.806 317.897C678.806 316.725 679.635 315.679 680.831 315.444C682.972 315.027 685.191 314.721 687.426 314.535C687.495 314.527 687.566 314.524 687.635 314.524C689.373 314.524 691.172 314.544 692.984 314.587C694.348 314.615 695.429 315.73 695.429 317.085Z" fill="black"/>
<path d="M803.434 276.582C804.813 276.447 806.036 277.451 806.173 278.826C806.579 282.952 806.568 287.094 806.136 291.011C805.988 292.386 804.75 293.378 803.377 293.227C802.096 293.084 801.147 292 801.147 290.74C801.147 290.648 801.15 290.557 801.162 290.462C801.553 286.891 801.565 283.097 801.193 279.321C801.053 277.948 802.059 276.719 803.434 276.582Z" fill="black"/>
</g>
<g opacity="0.2">
<mask id="mask4_130_14" style="mask-type:luminance" maskUnits="userSpaceOnUse" x="642" y="915" width="24" height="24">
<path d="M665.6 915.413H642.136V938.835H665.6V915.413Z" fill="white"/>
</mask>
<g mask="url(#mask4_130_14)">
<path d="M648.048 926.975C648.048 930.075 650.558 932.585 653.655 932.585C656.751 932.585 659.261 930.075 659.261 926.975C659.261 923.879 656.751 921.369 653.655 921.369C650.558 921.369 648.048 923.879 648.048 926.975ZM665.168 926.975C665.168 933.337 660.013 938.494 653.655 938.494C647.291 938.494 642.136 933.337 642.136 926.975C642.136 920.614 647.291 915.459 653.655 915.459C660.013 915.459 665.168 920.614 665.168 926.975Z" fill="black"/>
</g>
<path d="M723.315 1014.95L711.662 1015.79C710.284 1015.89 709.083 1014.85 708.986 1013.47C708.98 1013.41 708.98 1013.35 708.98 1013.29C708.98 1011.99 709.984 1010.89 711.304 1010.8L722.952 1009.95C724.333 1009.86 725.531 1010.89 725.628 1012.27C725.728 1013.66 724.693 1014.85 723.315 1014.95Z" fill="black"/>
<path d="M793.945 1011.24L782.291 1012.08C780.913 1012.18 779.712 1011.14 779.615 1009.76C779.609 1009.7 779.609 1009.64 779.609 1009.58C779.609 1008.28 780.613 1007.18 781.934 1007.09L793.581 1006.24C794.962 1006.15 796.16 1007.18 796.257 1008.56C796.358 1009.95 795.323 1011.13 793.945 1011.24Z" fill="black"/>
<path d="M890.497 1009.01L878.817 1009.31C877.436 1009.34 876.284 1008.25 876.251 1006.87C876.248 1006.81 876.251 1006.75 876.254 1006.69C876.314 1005.39 877.368 1004.34 878.692 1004.3L890.366 1004C891.75 1003.97 892.898 1005.06 892.931 1006.44C892.967 1007.83 891.878 1008.97 890.497 1009.01Z" fill="black"/>
<path d="M817.38 1010.94L805.698 1010.78C804.316 1010.76 803.209 1009.62 803.232 1008.24C803.231 1008.18 803.236 1008.12 803.242 1008.06C803.354 1006.76 804.448 1005.75 805.772 1005.77L817.449 1005.94C818.833 1005.96 819.938 1007.09 819.915 1008.48C819.895 1009.87 818.762 1010.96 817.38 1010.94Z" fill="black"/>
<path d="M913.921 1009.8L902.258 1009.1C900.879 1009.01 899.826 1007.82 899.912 1006.44C899.914 1006.38 899.923 1006.32 899.931 1006.26C900.102 1004.97 901.243 1004.02 902.565 1004.1L914.221 1004.8C915.603 1004.89 916.653 1006.07 916.567 1007.45C916.483 1008.84 915.3 1009.88 913.921 1009.8Z" fill="black"/>
<path d="M841.554 1010.28L829.877 1010.67C828.496 1010.71 827.336 1009.63 827.292 1008.25C827.289 1008.19 827.291 1008.13 827.293 1008.07C827.344 1006.77 828.389 1005.71 829.712 1005.66L841.384 1005.27C842.768 1005.23 843.925 1006.31 843.968 1007.69C844.015 1009.08 842.935 1010.23 841.554 1010.28Z" fill="black"/>
<path d="M938.099 1010.25L926.416 1010.11C925.035 1010.09 923.926 1008.95 923.947 1007.57C923.946 1007.51 923.951 1007.45 923.957 1007.39C924.067 1006.09 925.16 1005.08 926.484 1005.1L938.161 1005.25C939.546 1005.27 940.651 1006.4 940.631 1007.78C940.613 1009.18 939.481 1010.27 938.099 1010.25Z" fill="black"/>
<path d="M866.263 1009.6L854.582 1009.35C853.201 1009.31 852.103 1008.17 852.136 1006.79C852.135 1006.73 852.141 1006.66 852.147 1006.6C852.269 1005.31 853.371 1004.31 854.695 1004.34L866.371 1004.59C867.754 1004.63 868.85 1005.77 868.817 1007.15C868.786 1008.55 867.645 1009.63 866.263 1009.6Z" fill="black"/>
<path d="M962.814 1010.72L951.157 1009.93C949.779 1009.83 948.735 1008.64 948.832 1007.26C948.834 1007.2 948.843 1007.14 948.851 1007.08C949.033 1005.79 950.181 1004.84 951.502 1004.93L963.153 1005.73C964.534 1005.83 965.575 1007.02 965.478 1008.4C965.383 1009.79 964.193 1010.82 962.814 1010.72Z" fill="black"/>
<path d="M649.673 979.241L649.41 967.56C649.382 966.179 650.475 965.031 651.859 965.003C651.919 965 651.982 965.003 652.042 965.006C653.339 965.071 654.388 966.128 654.417 967.452L654.68 979.127C654.708 980.511 653.615 981.656 652.231 981.684C650.838 981.715 649.707 980.623 649.673 979.241Z" fill="black"/>
<path d="M648.918 957.336L648.655 945.655C648.627 944.274 649.72 943.126 651.104 943.098C651.164 943.095 651.227 943.098 651.287 943.101C652.584 943.166 653.633 944.223 653.662 945.547L653.925 957.222C653.953 958.606 652.86 959.751 651.476 959.779C650.083 959.81 648.953 958.718 648.918 957.336Z" fill="black"/>
<path d="M650.317 909.703L650.276 898.019C650.273 896.638 651.388 895.511 652.773 895.509C652.833 895.507 652.896 895.511 652.956 895.516C654.251 895.605 655.28 896.681 655.283 898.006L655.325 909.684C655.327 911.068 654.212 912.192 652.828 912.194C651.435 912.199 650.325 911.085 650.317 909.703Z" fill="black"/>
<path d="M649.175 886.27L648.859 874.591C648.824 873.21 649.912 872.057 651.296 872.022C651.357 872.019 651.419 872.022 651.479 872.025C652.776 872.083 653.83 873.136 653.865 874.459L654.181 886.133C654.216 887.517 653.128 888.667 651.744 888.702C650.352 888.739 649.216 887.652 649.175 886.27Z" fill="black"/>
<path d="M769.583 1012.34C768.062 1012.23 766.492 1012.18 764.785 1012.18C762.833 1012.18 760.691 1012.25 758.235 1012.4C756.854 1012.48 755.671 1011.43 755.591 1010.05C755.588 1010 755.582 1009.95 755.582 1009.89C755.582 1008.58 756.611 1007.48 757.938 1007.4C760.491 1007.25 762.733 1007.18 764.785 1007.18C766.612 1007.18 768.299 1007.23 769.94 1007.35C771.315 1007.45 772.368 1008.63 772.259 1010.03C772.159 1011.4 770.961 1012.44 769.583 1012.34Z" fill="black"/>
<path d="M655.548 989.901C656.011 993.243 657.335 996.477 659.482 999.507C660.28 1000.64 660.014 1002.2 658.885 1003C657.758 1003.8 656.197 1003.53 655.399 1002.4C652.781 998.707 651.162 994.733 650.588 990.59C650.57 990.473 650.565 990.358 650.565 990.244C650.565 989.012 651.471 987.94 652.726 987.768C654.096 987.574 655.359 988.534 655.548 989.901Z" fill="black"/>
<path d="M734.605 1009.11L746.256 1008.27C747.637 1008.17 748.832 1009.21 748.935 1010.59C749.035 1011.98 747.994 1013.16 746.616 1013.26L734.968 1014.11C733.588 1014.21 732.39 1013.17 732.287 1011.79C732.284 1011.73 732.281 1011.67 732.281 1011.61C732.281 1010.31 733.287 1009.21 734.605 1009.11Z" fill="black"/>
<path d="M685.662 1014.65C685.67 1013.27 686.803 1012.16 688.184 1012.16L688.773 1012.17C692.518 1012.17 696.349 1011.9 699.645 1011.66C701.023 1011.55 702.227 1012.58 702.33 1013.96C702.436 1015.34 701.398 1016.54 700.02 1016.65C696.632 1016.9 692.689 1017.17 688.773 1017.17L688.146 1017.17C686.771 1017.16 685.662 1016.04 685.662 1014.67C685.662 1014.66 685.662 1014.65 685.662 1014.65Z" fill="black"/>
<path d="M669.285 1008.1C671.673 1009.39 674.237 1010.34 677.131 1011.01C678.48 1011.32 679.323 1012.66 679.009 1014.01C678.697 1015.36 677.354 1016.2 676.007 1015.89C672.713 1015.13 669.651 1013.99 666.904 1012.5C666.083 1012.06 665.271 1011.58 664.485 1011.06C663.747 1010.58 663.347 1009.78 663.347 1008.96C663.347 1008.49 663.479 1008.02 663.753 1007.6C664.508 1006.44 666.06 1006.11 667.215 1006.87C667.887 1007.3 668.582 1007.72 669.285 1008.1Z" fill="black"/>
<path d="M717.986 833.834C717.866 835.212 716.654 836.233 715.273 836.116C710.99 835.744 707.205 835.458 703.691 835.238C702.362 835.158 701.341 834.057 701.341 832.745C701.341 832.691 701.341 832.642 701.344 832.585C701.427 831.207 702.619 830.157 703.997 830.243C707.554 830.46 711.382 830.752 715.707 831.127C717.083 831.247 718.109 832.439 717.986 833.834Z" fill="black"/>
<path d="M750.178 839.295C748.875 839.183 747.888 838.088 747.888 836.802C747.888 836.733 747.891 836.662 747.897 836.584C748.014 835.209 749.226 834.186 750.601 834.303L751.951 834.42C755.313 834.709 758.784 835.003 762.14 835.138C763.524 835.189 764.602 836.378 764.542 837.737C764.488 839.117 763.324 840.192 761.946 840.138C758.472 840.001 754.941 839.701 751.525 839.409L750.178 839.295Z" fill="black"/>
<path d="M771.218 837.556C771.207 837.445 771.198 837.339 771.198 837.228C771.198 835.99 772.116 834.912 773.374 834.746C776.779 834.297 779.844 833.514 782.7 832.37C783.089 832.207 783.472 832.039 783.847 831.858C785.096 831.269 786.588 831.804 787.177 833.051C787.766 834.297 787.237 835.792 785.988 836.387C785.551 836.593 785.105 836.79 784.601 837.002C781.314 838.32 777.854 839.206 774.032 839.712C772.659 839.892 771.401 838.929 771.218 837.556Z" fill="black"/>
<path d="M724.633 834.46C724.765 833.088 725.989 832.081 727.367 832.21L730.354 832.505C733.233 832.788 736.11 833.068 738.983 833.339C740.361 833.465 741.376 834.68 741.241 836.064C741.116 837.439 739.892 838.454 738.517 838.323C735.635 838.051 732.75 837.768 729.871 837.488L726.881 837.199C725.588 837.07 724.619 835.981 724.619 834.709C724.619 834.626 724.622 834.546 724.633 834.46Z" fill="black"/>
<path d="M655.125 853.118C653.833 856.206 653.106 859.74 652.966 863.622C652.918 865 651.757 866.084 650.376 866.032C649.027 865.981 647.963 864.874 647.963 863.531C647.963 863.502 647.963 863.473 647.963 863.439C648.126 858.959 648.981 854.833 650.502 851.188C651.037 849.913 652.503 849.31 653.778 849.842C655.056 850.376 655.654 851.843 655.125 853.118Z" fill="black"/>
<path d="M671.715 835.509C672.287 836.77 671.727 838.254 670.466 838.826C667.015 840.39 663.916 842.357 661.254 844.675C660.216 845.585 658.632 845.476 657.726 844.435C657.312 843.958 657.109 843.372 657.109 842.791C657.109 842.091 657.4 841.396 657.966 840.901C660.991 838.263 664.502 836.03 668.402 834.266C669.66 833.694 671.144 834.251 671.715 835.509Z" fill="black"/>
<path d="M802.516 818.127C800.918 822.212 798.75 825.809 796.069 828.834C795.154 829.869 793.57 829.963 792.535 829.042C791.977 828.551 791.694 827.864 791.694 827.173C791.694 826.578 791.9 825.986 792.323 825.509C794.611 822.933 796.472 819.836 797.853 816.305C798.356 815.019 799.808 814.381 801.095 814.884C802.381 815.39 803.019 816.84 802.516 818.127Z" fill="black"/>
<path d="M694.673 832.233C694.673 832.253 694.673 832.273 694.673 832.293C694.644 833.674 693.498 834.769 692.114 834.737C690.379 834.7 688.655 834.677 686.988 834.677C684.966 834.852 682.962 835.129 681.032 835.507C679.674 835.77 678.359 834.883 678.096 833.528C678.065 833.365 678.051 833.205 678.051 833.045C678.051 831.873 678.88 830.826 680.075 830.592C682.216 830.174 684.435 829.869 686.67 829.683C686.739 829.674 686.811 829.671 686.879 829.671C688.617 829.671 690.416 829.691 692.228 829.734C693.592 829.763 694.673 830.878 694.673 832.233Z" fill="black"/>
<path d="M802.679 791.729C804.057 791.595 805.28 792.598 805.418 793.973C805.824 798.099 805.812 802.242 805.38 806.159C805.232 807.534 803.994 808.526 802.621 808.374C801.341 808.231 800.391 807.148 800.391 805.887C800.391 805.795 800.394 805.704 800.406 805.61C800.797 802.039 800.809 798.245 800.437 794.468C800.297 793.096 801.303 791.866 802.679 791.729Z" fill="black"/>
</g>
<g opacity="0.2">
<mask id="mask5_130_14" style="mask-type:luminance" maskUnits="userSpaceOnUse" x="805" y="1153" width="24" height="24">
<path d="M828.688 1153.41L805.225 1153.58L805.39 1177L828.853 1176.83L828.688 1153.41Z" fill="white"/>
</mask>
<g mask="url(#mask5_130_14)">
<path d="M811.219 1165.1C811.24 1168.2 813.768 1170.69 816.864 1170.67C819.961 1170.65 822.453 1168.12 822.431 1165.02C822.41 1161.92 819.882 1159.43 816.785 1159.45C813.689 1159.48 811.197 1162 811.219 1165.1ZM828.338 1164.98C828.383 1171.34 823.264 1176.53 816.906 1176.58C810.542 1176.62 805.351 1171.5 805.306 1165.14C805.261 1158.78 810.38 1153.59 816.744 1153.54C823.102 1153.5 828.293 1158.62 828.338 1164.98Z" fill="black"/>
</g>
</g>
<g opacity="0.2">
<mask id="mask6_130_14" style="mask-type:luminance" maskUnits="userSpaceOnUse" x="507" y="1153" width="25" height="24">
<path d="M531.074 1153.24L507.61 1153.41L507.775 1176.83L531.239 1176.66L531.074 1153.24Z" fill="white"/>
</mask>
<g mask="url(#mask6_130_14)">
<path d="M513.604 1164.93C513.626 1168.03 516.153 1170.52 519.25 1170.5C522.346 1170.48 524.838 1167.95 524.817 1164.85C524.795 1161.75 522.267 1159.26 519.171 1159.28C516.074 1159.31 513.582 1161.83 513.604 1164.93ZM530.723 1164.81C530.768 1171.17 525.65 1176.36 519.291 1176.41C512.927 1176.45 507.736 1171.33 507.691 1164.97C507.647 1158.61 512.765 1153.42 519.129 1153.37C525.487 1153.33 530.678 1158.45 530.723 1164.81Z" fill="black"/>
</g>
</g>
<g opacity="0.2">
<mask id="mask7_130_14" style="mask-type:luminance" maskUnits="userSpaceOnUse" x="322" y="1152" width="25" height="24">
<path d="M346.002 1152.28L322.539 1152.45L322.704 1175.87L346.167 1175.7L346.002 1152.28Z" fill="white"/>
</mask>
<g mask="url(#mask7_130_14)">
<path d="M328.533 1163.97C328.554 1167.07 331.082 1169.56 334.178 1169.54C337.275 1169.51 339.767 1166.99 339.745 1163.89C339.724 1160.79 337.196 1158.3 334.099 1158.32C331.003 1158.34 328.511 1160.87 328.533 1163.97ZM345.652 1163.85C345.697 1170.21 340.578 1175.4 334.22 1175.45C327.856 1175.49 322.665 1170.37 322.62 1164.01C322.575 1157.65 327.694 1152.46 334.058 1152.41C340.416 1152.37 345.607 1157.48 345.652 1163.85Z" fill="black"/>
</g>
</g>
</svg>
